<svg width="40" height="40" viewBox="0 0 40 40" fill="none" xmlns="http://www.w3.org/2000/svg">
<path d="M34.0656 8.95L22.275 1.95C21.5719 1.53438 20.7844 1.325 20 1.325C19.2156 1.325 18.4281 1.53438 17.725 1.95313L5.93125 8.95313C4.525 9.7875 3.65625 11.3313 3.65625 13.0031V27.0031C3.65625 28.675 4.52187 30.2188 5.93125 31.0531L17.7219 38.0531C18.425 38.4719 19.2094 38.6781 19.9969 38.6781C20.7812 38.6781 21.5687 38.4688 22.2719 38.0531L34.0656 31.0531C35.4719 30.2188 36.3406 28.6719 36.3406 27.0031V13C36.3406 11.3313 35.475 9.78438 34.0656 8.95ZM24.9344 30.8094L24.9531 31.8156C24.9531 31.9375 24.875 32.075 24.7813 32.125L24.1844 32.4688C24.0906 32.5156 24.0094 32.4594 24.0094 32.3375L24 31.3469C23.4906 31.5594 22.9719 31.6094 22.6437 31.4781C22.5812 31.4531 22.5531 31.3625 22.5781 31.2563L22.7938 30.3469C22.8125 30.275 22.85 30.2031 22.9 30.1594C22.9187 30.1406 22.9375 30.1281 22.9562 30.1188C22.9906 30.1 23.025 30.0969 23.0531 30.1094C23.4094 30.2281 23.8625 30.1719 24.3 29.9531C24.8563 29.6719 25.2281 29.1031 25.2219 28.5406C25.2156 28.0281 24.9406 27.8188 24.2688 27.8125C23.4125 27.8156 22.6125 27.6469 22.6 26.3844C22.5906 25.3469 23.1281 24.2656 23.9844 23.5844L23.975 22.5688C23.975 22.4438 24.05 22.3063 24.1469 22.2563L24.725 21.8875C24.8188 21.8406 24.9 21.9 24.9 22.0219L24.9094 23.0375C25.3344 22.8688 25.7031 22.8219 26.0375 22.9C26.1094 22.9188 26.1438 23.0188 26.1125 23.1344L25.8875 24.0344C25.8687 24.1031 25.8313 24.1719 25.7844 24.2156C25.767 24.2332 25.7469 24.2479 25.725 24.2594C25.6938 24.275 25.6656 24.2781 25.6375 24.275C25.4844 24.2406 25.1219 24.1625 24.55 24.45C23.95 24.7531 23.7406 25.275 23.7438 25.6625C23.75 26.125 23.9844 26.2656 24.8031 26.2781C25.8938 26.2969 26.3625 26.7719 26.375 27.8688C26.3906 28.9438 25.8156 30.1031 24.9344 30.8094ZM33.1656 11.9031L22.0094 18.7938C20.6187 19.6063 19.5937 20.5188 19.5906 22.1969V35.9438C19.5906 36.9469 19.9969 37.5969 20.6188 37.7875C20.4156 37.8219 20.2062 37.8469 20 37.8469C19.3469 37.8469 18.7031 37.6688 18.1375 37.3344L6.34687 30.3344C5.19375 29.65 4.47813 28.3719 4.47813 27V13C4.47813 11.6281 5.19375 10.35 6.34687 9.66563L18.1406 2.66563C18.7062 2.33125 19.35 2.15313 20.0031 2.15313C20.6562 2.15313 21.3 2.33125 21.8656 2.66563L33.6594 9.66563C34.6313 10.2438 35.2875 11.2406 35.4719 12.3625C35.075 11.5281 34.1938 11.3031 33.1656 11.9031Z" fill="#293138"/>
<path d="M30.975 28.3531L28.0375 30.1094C27.9594 30.1563 27.9031 30.2063 27.9031 30.3V31.0688C27.9031 31.1625 27.9656 31.2031 28.0437 31.1563L31.025 29.3438C31.1031 29.2969 31.1156 29.2125 31.1156 29.1188V28.4406C31.1156 28.3469 31.0531 28.3094 30.975 28.3531Z" fill="#4FA847"/>
</svg>
