<svg width="50" height="64" viewBox="0 0 50 64" fill="none" xmlns="http://www.w3.org/2000/svg">
<g clip-path="url(#clip0_7_732)">
<path opacity="0.4" d="M2.69275 60.234L0 58.6935L4.02905 56.3877L6.72054 57.927L2.69275 60.234Z" fill="#D6D8E5"/>
<path d="M2.74822 57.129L0.518127 55.8419L2.74822 54.5547L4.97705 55.8419L2.74822 57.129Z" fill="#D6D8E5"/>
<path d="M2.74822 59.7032L0.518127 58.4161V55.8419L2.74822 57.129V59.7032Z" fill="#B1B6C4"/>
<path d="M4.97832 58.4161L2.74823 59.7032V57.129L4.97832 55.8419V58.4161Z" fill="#C4C7D6"/>
<path d="M5.74479 57.6118C5.93763 57.6655 6.1439 57.6406 6.31839 57.5425C6.45706 57.5425 7.20841 57.2261 7.31052 57.4958C7.40003 57.7316 7.07478 57.9509 6.90081 57.9925C6.52261 58.0846 6.24023 58.2737 6.08769 58.3064C6.02959 58.3273 5.96728 58.3336 5.90619 58.3248C5.8451 58.316 5.7871 58.2924 5.73723 58.256C5.62881 58.1426 5.6389 57.7467 5.74479 57.6118Z" fill="#38226D"/>
<path d="M6.08769 58.2346C6.24023 58.2018 6.52136 58.0127 6.90081 57.9207C7.04579 57.8854 7.29666 57.7265 7.32187 57.5362C7.35591 57.7543 7.06218 57.9472 6.90081 57.9862C6.52262 58.0783 6.24023 58.2674 6.08769 58.3001C6.0296 58.321 5.96728 58.3273 5.9062 58.3185C5.84511 58.3097 5.7871 58.2861 5.73723 58.2497C5.7132 58.2243 5.69625 58.193 5.68806 58.1589C5.74415 58.2019 5.80951 58.231 5.8789 58.2442C5.94829 58.2573 6.0198 58.254 6.08769 58.2346Z" fill="#9C73FF"/>
<path d="M4.39086 56.8844C4.5837 56.9381 4.78996 56.9132 4.96445 56.8151C5.10312 56.8151 5.84691 56.4987 5.95532 56.7684C6.04483 57.0042 5.71958 57.2235 5.54687 57.2651C5.16868 57.3572 4.88629 57.5463 4.73375 57.579C4.67566 57.5999 4.61334 57.6062 4.55226 57.5974C4.49117 57.5886 4.43316 57.565 4.38329 57.5286C4.27487 57.4215 4.28622 57.0256 4.39086 56.8844Z" fill="#38226D"/>
<path d="M4.73375 57.5135C4.88629 57.4807 5.16741 57.2916 5.54687 57.1996C5.69184 57.1643 5.94271 57.0054 5.96793 56.8151C6.00196 57.0332 5.70823 57.2261 5.54687 57.2651C5.16867 57.3572 4.88629 57.5463 4.73375 57.579C4.67565 57.5999 4.61334 57.6062 4.55225 57.5974C4.49116 57.5886 4.43315 57.565 4.38329 57.5286C4.35954 57.5035 4.34261 57.4726 4.33412 57.4391C4.39041 57.4816 4.45581 57.5105 4.52517 57.5234C4.59452 57.5363 4.66593 57.5329 4.73375 57.5135Z" fill="#9C73FF"/>
<path d="M2.28178 55.9503C2.86798 56.2024 3.41637 56.2478 3.87146 56.0057L4.3379 55.736C4.36564 56.3386 4.39211 56.9172 4.39211 56.9172C4.39211 56.9172 4.75014 57.1882 5.02244 56.9462C5.02244 56.9462 5.08043 56.1016 5.13968 55.2695L5.62881 54.9871C5.61702 55.0316 5.61067 55.0773 5.6099 55.1233C5.6099 55.2809 5.72336 57.6295 5.72336 57.6295C5.72336 57.6295 6.08391 57.8438 6.36251 57.603C6.36251 57.603 6.55035 54.8812 6.59321 54.4514C6.64111 53.9622 6.09903 53.7214 5.75488 53.8462L5.23044 54.0416L5.25566 53.7391C5.30482 53.25 4.76148 53.0092 4.41858 53.134C4.10594 53.2487 1.99309 54.0404 1.99309 54.0404C2.00624 54.2438 2.03107 54.4462 2.06747 54.6468L1.23292 54.5762C1.18879 55.3565 1.69684 55.6931 2.28178 55.9503ZM3.73909 54.5976L4.29756 54.2761C4.28825 54.3155 4.28235 54.3555 4.27991 54.3959L3.73909 54.5976Z" fill="#6889CA"/>
<path d="M0.781616 52.191C0.781616 52.191 0.849691 53.2285 0.985842 53.3786C1.12199 53.5286 1.58339 53.6307 1.58339 53.6307L1.93763 54.2081C1.93763 54.2081 1.61365 52.3574 1.54305 52.3171C1.47245 52.2767 0.781616 52.191 0.781616 52.191Z" fill="#FFCEA9"/>
<path d="M1.46362 51.0375C1.37772 50.9974 1.28013 50.99 1.18916 51.0167C1.09818 51.0434 1.02007 51.1023 0.969446 51.1825C0.843381 51.3981 0.703448 52.1406 0.690842 52.2666C0.743239 52.3374 0.812651 52.3938 0.892645 52.4306C0.972639 52.4674 1.06063 52.4834 1.14846 52.4772L1.46362 51.0375Z" fill="#EDEDED"/>
<path d="M1.58843 51.0564C1.76744 51.0652 1.90107 51.1106 1.92376 51.0564C1.94298 50.9641 1.95646 50.8706 1.96411 50.7766C1.94393 50.7236 1.92629 50.6681 1.92629 50.6681C1.70063 50.5295 1.63003 50.2899 1.59978 50.0025C1.54935 49.5172 1.81157 49.0936 2.29566 49.0432C2.75201 48.9953 3.08735 49.3155 3.17811 49.7554C3.22602 49.9723 3.32183 50.3858 3.19198 50.74C3.12012 50.9392 3.02684 51.098 2.93985 51.1283C2.84954 51.1264 2.75943 51.1188 2.67007 51.1056C2.67007 51.1056 2.64612 51.2405 2.62973 51.3262C2.61334 51.4119 2.61838 51.4586 2.79109 51.5645C2.9638 51.6704 2.5314 51.8885 2.24901 51.867C1.96663 51.8456 1.64894 51.6754 1.56196 51.4888C1.45732 51.2846 1.46489 51.0451 1.58843 51.0564Z" fill="#FFCEA9"/>
<path d="M6.13434 54.227C6.13423 54.2525 6.12743 54.2776 6.1146 54.2998C6.10177 54.3219 6.08336 54.3403 6.06122 54.353L4.69341 55.1422C4.67122 55.1552 4.64599 55.162 4.62029 55.162C4.5946 55.162 4.56936 55.1552 4.54717 55.1422L2.63098 54.0354C2.60866 54.0228 2.59011 54.0044 2.57726 53.9823C2.5644 53.9601 2.55771 53.9349 2.55786 53.9093V53.8992L6.13434 54.227Z" fill="#E5E5E5"/>
<path d="M6.06121 54.353L4.6934 55.1422C4.67138 55.1556 4.64606 55.1626 4.62029 55.1624V54.227H6.13307C6.1331 54.2524 6.12648 54.2774 6.11388 54.2995C6.10128 54.3217 6.08312 54.3401 6.06121 54.353Z" fill="#E5E5E5"/>
<path d="M4.67199 55.0703C4.65656 55.0796 4.63891 55.0844 4.62093 55.0844C4.60296 55.0844 4.58531 55.0796 4.56988 55.0703L2.57679 53.9206C2.55157 53.9055 2.55157 53.8815 2.57679 53.8677L4.04419 53.0193L6.13435 54.227L4.67199 55.0703Z" fill="#F4F4F4"/>
<path d="M3.39494 54.227L3.40503 54.232L4.04418 54.6014L4.39464 54.3984L4.40473 54.3934L3.75549 54.019L3.39494 54.227Z" fill="#BFBFBF"/>
<path d="M3.40503 54.232L4.04418 54.6014L4.39464 54.3984L3.75549 54.0303L3.40503 54.232Z" fill="#E5E5E5"/>
<path d="M5.59225 54.2862L5.68427 54.3392C5.68872 54.3416 5.69371 54.3429 5.69877 54.3429C5.70384 54.3429 5.70882 54.3416 5.71327 54.3392L5.80152 54.2887C5.81034 54.2887 5.8116 54.2761 5.80152 54.2724L5.70949 54.2181C5.70495 54.216 5.7 54.2149 5.69499 54.2149C5.68998 54.2149 5.68503 54.216 5.68049 54.2181L5.59225 54.2698C5.58594 54.2749 5.58468 54.2824 5.59225 54.2862Z" fill="#3A2C6D"/>
<path d="M5.46241 54.2081L5.55444 54.261C5.55888 54.2634 5.56387 54.2647 5.56893 54.2647C5.574 54.2647 5.57899 54.2634 5.58343 54.261L5.67168 54.2106C5.6805 54.2106 5.6805 54.198 5.67168 54.1942L5.57965 54.1412C5.5752 54.1388 5.57022 54.1375 5.56515 54.1375C5.56009 54.1375 5.5551 54.1388 5.55066 54.1412L5.46241 54.1917C5.45611 54.1992 5.45485 54.2081 5.46241 54.2081Z" fill="#3A2C6D"/>
<path d="M5.33131 54.1362L5.42333 54.1892C5.42808 54.1913 5.43324 54.1924 5.43846 54.1924C5.44368 54.1924 5.44884 54.1913 5.45359 54.1892L5.54057 54.1387C5.5494 54.1387 5.55066 54.1261 5.54057 54.1211L5.44855 54.0681C5.4441 54.0657 5.43912 54.0644 5.43405 54.0644C5.42898 54.0644 5.424 54.0657 5.41955 54.0681L5.33131 54.1186C5.325 54.1236 5.32374 54.1312 5.33131 54.1362Z" fill="#3A2C6D"/>
<path d="M5.20145 54.0606L5.29348 54.1135C5.29802 54.1156 5.30297 54.1168 5.30798 54.1168C5.31299 54.1168 5.31794 54.1156 5.32248 54.1135L5.41072 54.0631C5.41955 54.0631 5.42081 54.0505 5.41072 54.0454L5.31869 53.9925C5.31394 53.9903 5.30879 53.9892 5.30357 53.9892C5.29835 53.9892 5.29319 53.9903 5.28844 53.9925L5.20145 54.0429C5.19515 54.048 5.19389 54.0555 5.20145 54.0606Z" fill="#3A2C6D"/>
<path d="M5.07035 53.9849L5.16364 54.0379C5.16809 54.0403 5.17307 54.0416 5.17814 54.0416C5.1832 54.0416 5.18819 54.0403 5.19263 54.0379L5.27962 53.9874C5.28844 53.9874 5.2897 53.9748 5.27962 53.9711L5.18759 53.9168C5.18306 53.9147 5.17811 53.9136 5.17309 53.9136C5.16808 53.9136 5.16313 53.9147 5.1586 53.9168L5.07035 53.9685C5.06405 53.9736 5.06279 53.9811 5.07035 53.9849Z" fill="#3A2C6D"/>
<path d="M4.9405 53.9093L5.03253 53.9635C5.03706 53.9656 5.04201 53.9667 5.04702 53.9667C5.05204 53.9667 5.05699 53.9656 5.06152 53.9635L5.14977 53.9118C5.15859 53.9118 5.15985 53.8992 5.14977 53.8954L5.05774 53.8425C5.05307 53.84 5.04788 53.8388 5.04261 53.8388C5.03734 53.8388 5.03216 53.84 5.02748 53.8425L4.9405 53.8929C4.9342 53.8979 4.93293 53.9055 4.9405 53.9093Z" fill="#3A2C6D"/>
<path d="M4.81065 53.8299L4.90268 53.8828C4.90721 53.8849 4.91216 53.886 4.91718 53.886C4.92219 53.886 4.92714 53.8849 4.93167 53.8828L5.01992 53.8324C5.02874 53.8324 5.02874 53.8198 5.01992 53.8147L4.92789 53.7618C4.92336 53.7596 4.91841 53.7585 4.91339 53.7585C4.90838 53.7585 4.90343 53.7596 4.8989 53.7618L4.81065 53.8122C4.80309 53.8223 4.80309 53.8299 4.81065 53.8299Z" fill="#3A2C6D"/>
<path d="M4.67954 53.7593L4.77157 53.8122C4.77602 53.8146 4.781 53.8159 4.78607 53.8159C4.79113 53.8159 4.79612 53.8146 4.80057 53.8122L4.88881 53.7618C4.89764 53.7618 4.8989 53.7492 4.88881 53.7454L4.79678 53.6912C4.79225 53.6891 4.7873 53.688 4.78229 53.688C4.77727 53.688 4.77232 53.6891 4.76779 53.6912L4.67954 53.7429C4.67324 53.7479 4.67198 53.7555 4.67954 53.7593Z" fill="#3A2C6D"/>
<path d="M4.5497 53.6836L4.64173 53.7366C4.64618 53.739 4.65116 53.7403 4.65623 53.7403C4.66129 53.7403 4.66628 53.739 4.67072 53.7366L4.75897 53.6861C4.76779 53.6861 4.76779 53.6735 4.75897 53.6698L4.66442 53.6156C4.65997 53.6131 4.65499 53.6119 4.64992 53.6119C4.64486 53.6119 4.63987 53.6131 4.63543 53.6156L4.54718 53.666C4.53836 53.6723 4.53836 53.6798 4.5497 53.6836Z" fill="#3A2C6D"/>
<path d="M4.41859 53.6093L4.51062 53.6622C4.51537 53.6644 4.52053 53.6655 4.52575 53.6655C4.53097 53.6655 4.53612 53.6644 4.54087 53.6622L4.62786 53.6118C4.63668 53.6118 4.63794 53.5992 4.62786 53.5941L4.53835 53.5399C4.53391 53.5375 4.52892 53.5362 4.52386 53.5362C4.51879 53.5362 4.5138 53.5375 4.50936 53.5399L4.42111 53.5903C4.41229 53.5966 4.41229 53.6042 4.41859 53.6093Z" fill="#3A2C6D"/>
<path d="M4.28622 53.5336L4.37825 53.5866C4.38279 53.5887 4.38774 53.5898 4.39275 53.5898C4.39776 53.5898 4.40271 53.5887 4.40725 53.5866L4.49549 53.5361C4.50432 53.5361 4.50558 53.5235 4.49549 53.5185L4.41229 53.4643C4.40754 53.4621 4.40238 53.461 4.39716 53.461C4.39194 53.461 4.38678 53.4621 4.38203 53.4643L4.29505 53.5147C4.28622 53.521 4.28622 53.5286 4.28622 53.5336Z" fill="#3A2C6D"/>
<path d="M4.16016 53.458L4.25344 53.5109C4.25789 53.5133 4.26288 53.5146 4.26794 53.5146C4.27301 53.5146 4.27799 53.5133 4.28244 53.5109L4.37068 53.4605C4.37825 53.4605 4.37951 53.4479 4.37068 53.4441L4.27866 53.3899C4.27412 53.3878 4.26917 53.3867 4.26416 53.3867C4.25915 53.3867 4.2542 53.3878 4.24966 53.3899L4.16142 53.4416C4.15133 53.4517 4.15133 53.4517 4.16016 53.458Z" fill="#3A2C6D"/>
<path d="M4.03409 53.3823L4.12612 53.4365C4.13065 53.4387 4.1356 53.4398 4.14061 53.4398C4.14563 53.4398 4.15058 53.4387 4.15511 53.4365L4.24336 53.3849C4.25218 53.3849 4.25344 53.3722 4.24336 53.3685L4.15133 53.3155C4.14666 53.3131 4.14147 53.3118 4.1362 53.3118C4.13093 53.3118 4.12574 53.3131 4.12107 53.3155L4.03409 53.3659C4.02148 53.371 4.02022 53.3786 4.03409 53.3823Z" fill="#3A2C6D"/>
<path d="M3.8349 53.2714L3.98996 53.3609C3.99449 53.363 3.99944 53.3641 4.00446 53.3641C4.00947 53.3641 4.01442 53.363 4.01895 53.3609L4.1072 53.3105C4.11602 53.3105 4.11602 53.2979 4.1072 53.2928L3.9534 53.1995C3.94887 53.1974 3.94392 53.1963 3.9389 53.1963C3.93389 53.1963 3.92894 53.1974 3.92441 53.1995L3.83616 53.2512C3.83484 53.2511 3.83351 53.2513 3.83225 53.2518C3.831 53.2522 3.82984 53.2529 3.82884 53.2537C3.82785 53.2546 3.82704 53.2557 3.82645 53.2569C3.82587 53.2581 3.82553 53.2594 3.82544 53.2607C3.82536 53.262 3.82554 53.2633 3.82597 53.2646C3.8264 53.2658 3.82707 53.267 3.82795 53.268C3.82883 53.269 3.8299 53.2698 3.83109 53.2704C3.83228 53.271 3.83357 53.2713 3.8349 53.2714Z" fill="#3A2C6D"/>
<path d="M5.27205 54.2471L5.36534 54.3001C5.36979 54.3025 5.37477 54.3038 5.37984 54.3038C5.3849 54.3038 5.38989 54.3025 5.39434 54.3001L5.48258 54.2497C5.49014 54.2497 5.49141 54.2371 5.48258 54.2333L5.39055 54.1803C5.38611 54.1779 5.38112 54.1766 5.37606 54.1766C5.37099 54.1766 5.366 54.1779 5.36156 54.1803L5.27331 54.2307C5.26575 54.2358 5.26575 54.2434 5.27205 54.2471Z" fill="#3A2C6D"/>
<path d="M5.1422 54.1715L5.23423 54.2257C5.23877 54.2278 5.24372 54.229 5.24873 54.229C5.25374 54.229 5.25869 54.2278 5.26323 54.2257L5.35147 54.174C5.3603 54.174 5.36156 54.1614 5.35147 54.1576L5.25945 54.1047C5.25477 54.1023 5.24958 54.101 5.24432 54.101C5.23905 54.101 5.23386 54.1023 5.22919 54.1047L5.1422 54.1551C5.1359 54.1602 5.13464 54.1677 5.1422 54.1715Z" fill="#3A2C6D"/>
<path d="M5.0111 54.0971L5.10313 54.1501C5.10788 54.1522 5.11304 54.1533 5.11826 54.1533C5.12347 54.1533 5.12863 54.1522 5.13338 54.1501L5.22037 54.0996C5.22919 54.0996 5.23045 54.087 5.22037 54.082L5.12834 54.029C5.12381 54.0269 5.11886 54.0258 5.11384 54.0258C5.10883 54.0258 5.10388 54.0269 5.09935 54.029L5.0111 54.0795C5.0048 54.082 5.00354 54.0921 5.0111 54.0971Z" fill="#3A2C6D"/>
<path d="M4.88125 54.0215L4.97328 54.0744C4.97782 54.0766 4.98277 54.0777 4.98778 54.0777C4.99279 54.0777 4.99774 54.0766 5.00228 54.0744L5.09052 54.024C5.09935 54.024 5.09935 54.0114 5.09052 54.0064L4.99849 53.9534C4.99396 53.9513 4.98901 53.9502 4.984 53.9502C4.97898 53.9502 4.97403 53.9513 4.9695 53.9534L4.88125 54.0038C4.87369 54.0089 4.87369 54.0164 4.88125 54.0215Z" fill="#3A2C6D"/>
<path d="M4.7514 53.9458L4.84342 54.0001C4.84796 54.0022 4.85291 54.0033 4.85792 54.0033C4.86293 54.0033 4.86788 54.0022 4.87242 54.0001L4.96066 53.9484C4.96949 53.9484 4.97075 53.9358 4.96066 53.932L4.86864 53.879C4.86396 53.8766 4.85878 53.8753 4.85351 53.8753C4.84824 53.8753 4.84305 53.8766 4.83838 53.879L4.7514 53.9295C4.74509 53.9345 4.74383 53.9421 4.7514 53.9458Z" fill="#3A2C6D"/>
<path d="M4.62029 53.8715L4.71232 53.9244C4.71707 53.9266 4.72223 53.9277 4.72745 53.9277C4.73267 53.9277 4.73782 53.9266 4.74258 53.9244L4.82956 53.874C4.83839 53.874 4.83965 53.8614 4.82956 53.8563L4.73753 53.8034C4.733 53.8013 4.72805 53.8001 4.72304 53.8001C4.71802 53.8001 4.71307 53.8013 4.70854 53.8034L4.62029 53.8538C4.61399 53.8589 4.61273 53.8664 4.62029 53.8715Z" fill="#3A2C6D"/>
<path d="M4.49044 53.7958L4.58247 53.8488C4.58701 53.8509 4.59196 53.852 4.59697 53.852C4.60198 53.852 4.60693 53.8509 4.61147 53.8488L4.69971 53.7983C4.70854 53.7983 4.70854 53.7857 4.69971 53.7807L4.60769 53.7278C4.60315 53.7256 4.5982 53.7245 4.59319 53.7245C4.58818 53.7245 4.58323 53.7256 4.57869 53.7278L4.49044 53.7782C4.48288 53.7832 4.48288 53.7908 4.49044 53.7958Z" fill="#3A2C6D"/>
<path d="M4.35934 53.7202L4.45136 53.7731C4.45581 53.7756 4.4608 53.7768 4.46586 53.7768C4.47093 53.7768 4.47591 53.7756 4.48036 53.7731L4.56861 53.7227C4.57743 53.7227 4.57869 53.7101 4.56861 53.7063L4.47658 53.6521C4.47183 53.65 4.46667 53.6488 4.46145 53.6488C4.45623 53.6488 4.45107 53.65 4.44632 53.6521L4.35934 53.7038C4.35303 53.7038 4.35177 53.7164 4.35934 53.7202Z" fill="#3A2C6D"/>
<path d="M4.22823 53.6445L4.32152 53.6975C4.32596 53.6999 4.33095 53.7012 4.33601 53.7012C4.34108 53.7012 4.34607 53.6999 4.35051 53.6975L4.43876 53.6471C4.44632 53.6471 4.44758 53.6345 4.43876 53.6307L4.34673 53.5777C4.34228 53.5753 4.3373 53.574 4.33223 53.574C4.32717 53.574 4.32218 53.5753 4.31774 53.5777L4.22949 53.6282C4.22193 53.6332 4.22193 53.6408 4.22823 53.6445Z" fill="#3A2C6D"/>
<path d="M4.09838 53.5689L4.19041 53.6231C4.19494 53.6253 4.19989 53.6264 4.20491 53.6264C4.20992 53.6264 4.21487 53.6253 4.2194 53.6231L4.30765 53.5714C4.31647 53.5714 4.31773 53.5588 4.30765 53.555L4.21562 53.5021C4.21095 53.4997 4.20576 53.4984 4.20049 53.4984C4.19523 53.4984 4.19004 53.4997 4.18537 53.5021L4.09838 53.5525C4.09208 53.5576 4.09082 53.5651 4.09838 53.5689Z" fill="#3A2C6D"/>
<path d="M3.96728 53.4945L4.05931 53.5475C4.06406 53.5496 4.06921 53.5507 4.07443 53.5507C4.07965 53.5507 4.08481 53.5496 4.08956 53.5475L4.17655 53.497C4.18537 53.497 4.18663 53.4844 4.17655 53.4794L4.08452 53.4264C4.07998 53.4243 4.07503 53.4232 4.07002 53.4232C4.06501 53.4232 4.06006 53.4243 4.05552 53.4264L3.96728 53.4769C3.96097 53.4819 3.95971 53.4895 3.96728 53.4945Z" fill="#3A2C6D"/>
<path d="M3.83743 53.4189L3.92946 53.4718C3.93399 53.474 3.93894 53.4751 3.94395 53.4751C3.94897 53.4751 3.95392 53.474 3.95845 53.4718L4.0467 53.4214C4.05552 53.4214 4.05552 53.4088 4.0467 53.4038L3.95467 53.3508C3.95014 53.3487 3.94518 53.3476 3.94017 53.3476C3.93516 53.3476 3.93021 53.3487 3.92568 53.3508L3.83743 53.4012C3.82987 53.4063 3.82987 53.4138 3.83743 53.4189Z" fill="#3A2C6D"/>
<path d="M5.40316 54.3228L5.55822 54.4123C5.56276 54.4144 5.56771 54.4155 5.57272 54.4155C5.57773 54.4155 5.58268 54.4144 5.58722 54.4123L5.67546 54.3619C5.68429 54.3619 5.68555 54.3493 5.67546 54.3442L5.5204 54.2547C5.51565 54.2525 5.51049 54.2514 5.50527 54.2514C5.50005 54.2514 5.4949 54.2525 5.49014 54.2547L5.40316 54.3064C5.39686 54.3114 5.3956 54.319 5.40316 54.3228Z" fill="#3A2C6D"/>
<path d="M3.82608 53.2752L3.9181 53.3281C3.92567 53.3281 3.92567 53.3395 3.9181 53.3445L3.82482 53.3975C3.82084 53.3999 3.81625 53.4012 3.81158 53.4012C3.8069 53.4012 3.80232 53.3999 3.79834 53.3975H3.79078C3.78685 53.3956 3.78254 53.3946 3.77817 53.3946C3.77381 53.3946 3.7695 53.3956 3.76556 53.3975L3.66723 53.4542C3.66285 53.4561 3.65813 53.457 3.65337 53.457C3.6486 53.457 3.64388 53.4561 3.6395 53.4542L3.58151 53.4202C3.57395 53.4202 3.57395 53.4088 3.58151 53.4038L3.67354 53.3508L3.69245 53.3407L3.70631 53.3319L3.72018 53.3243L3.79834 53.279C3.80221 53.2759 3.80682 53.274 3.8117 53.2733C3.81657 53.2726 3.82153 53.2733 3.82608 53.2752Z" fill="#3A2C6D"/>
<path d="M5.08674 54.5774L5.17877 54.6304C5.18321 54.6328 5.1882 54.6341 5.19326 54.6341C5.19833 54.6341 5.20332 54.6328 5.20776 54.6304L5.29601 54.58C5.30483 54.58 5.30483 54.5673 5.29601 54.5636L5.20398 54.5106C5.19953 54.5082 5.19455 54.5069 5.18948 54.5069C5.18442 54.5069 5.17943 54.5082 5.17498 54.5106L5.08674 54.561C5.08044 54.5661 5.07917 54.5736 5.08674 54.5774Z" fill="#3A2C6D"/>
<path d="M4.95689 54.503L5.04892 54.556C5.05345 54.5581 5.0584 54.5592 5.06342 54.5592C5.06843 54.5592 5.07338 54.5581 5.07791 54.556L5.16616 54.5056C5.17498 54.5056 5.17498 54.493 5.16616 54.4879L5.07413 54.435C5.0696 54.4328 5.06465 54.4317 5.05963 54.4317C5.05462 54.4317 5.04967 54.4328 5.04514 54.435L4.95689 54.4854C4.94933 54.4904 4.94933 54.498 4.95689 54.503Z" fill="#3A2C6D"/>
<path d="M4.82578 54.4274L4.91907 54.4804C4.92351 54.4828 4.9285 54.4841 4.93356 54.4841C4.93863 54.4841 4.94361 54.4828 4.94806 54.4804L5.03631 54.4299C5.04387 54.4299 5.04513 54.4173 5.03631 54.4135L4.94428 54.3606C4.93983 54.3582 4.93485 54.3569 4.92978 54.3569C4.92472 54.3569 4.91973 54.3582 4.91528 54.3606L4.82704 54.4123C4.81948 54.4161 4.81947 54.4236 4.82578 54.4274Z" fill="#3A2C6D"/>
<path d="M3.71893 53.7883L3.81095 53.8412C3.81563 53.8436 3.82081 53.8449 3.82608 53.8449C3.83135 53.8449 3.83654 53.8436 3.84121 53.8412L3.92819 53.7908C3.93702 53.7908 3.93828 53.7782 3.92819 53.7744L3.83617 53.7202C3.83163 53.7181 3.82668 53.7169 3.82167 53.7169C3.81666 53.7169 3.81171 53.7181 3.80717 53.7202L3.71893 53.7719C3.71262 53.7769 3.71136 53.7845 3.71893 53.7883Z" fill="#3A2C6D"/>
<path d="M3.58907 53.7139L3.6811 53.7668C3.68564 53.769 3.69059 53.7701 3.6956 53.7701C3.70061 53.7701 3.70556 53.769 3.7101 53.7668L3.79834 53.7151C3.80717 53.7151 3.80843 53.7038 3.79834 53.6988L3.70631 53.6458C3.70164 53.6434 3.69645 53.6421 3.69119 53.6421C3.68592 53.6421 3.68073 53.6434 3.67606 53.6458L3.58907 53.6962C3.58277 53.7038 3.58151 53.7038 3.58907 53.7139Z" fill="#3A2C6D"/>
<path d="M3.45924 53.6382L3.55126 53.6912C3.55571 53.6936 3.5607 53.6949 3.56576 53.6949C3.57083 53.6949 3.57581 53.6936 3.58026 53.6912L3.6685 53.6408C3.67733 53.6408 3.67859 53.6282 3.6685 53.6244L3.57648 53.5702C3.57173 53.568 3.56657 53.5669 3.56135 53.5669C3.55613 53.5669 3.55097 53.568 3.54622 53.5702L3.45924 53.6219C3.45293 53.6269 3.45167 53.6345 3.45924 53.6382Z" fill="#3A2C6D"/>
<path d="M3.32938 53.5626L3.42141 53.6168C3.42594 53.6189 3.43089 53.6201 3.4359 53.6201C3.44092 53.6201 3.44587 53.6189 3.4504 53.6168L3.53865 53.5651C3.54747 53.5651 3.54747 53.5525 3.53865 53.5487L3.44536 53.4958C3.44091 53.4934 3.43593 53.4921 3.43086 53.4921C3.42579 53.4921 3.42081 53.4934 3.41636 53.4958L3.32812 53.5462C3.32307 53.5513 3.32181 53.5588 3.32938 53.5626Z" fill="#3A2C6D"/>
<path d="M4.66442 54.3341L4.79048 54.4072C4.79524 54.4094 4.80039 54.4105 4.80561 54.4105C4.81083 54.4105 4.81599 54.4094 4.82074 54.4072L4.90772 54.3568C4.91655 54.3568 4.91781 54.3442 4.90772 54.3392L4.78166 54.2673C4.77721 54.2649 4.77223 54.2636 4.76716 54.2636C4.7621 54.2636 4.75711 54.2649 4.75266 54.2673L4.66442 54.3177C4.65685 54.3215 4.65559 54.3341 4.66442 54.3341Z" fill="#3A2C6D"/>
<path d="M3.84878 53.8639L3.97484 53.9358C3.97929 53.9382 3.98427 53.9395 3.98934 53.9395C3.99441 53.9395 3.99939 53.9382 4.00384 53.9358L4.09208 53.8853C4.10091 53.8853 4.10217 53.8727 4.09208 53.8677L3.96602 53.7958C3.96148 53.7937 3.95653 53.7926 3.95152 53.7926C3.94651 53.7926 3.94156 53.7937 3.93702 53.7958L3.84878 53.8463C3.84247 53.8513 3.84121 53.8589 3.84878 53.8639Z" fill="#3A2C6D"/>
<path d="M4.01265 53.9559L4.62533 54.3102C4.62986 54.3123 4.63481 54.3134 4.63982 54.3134C4.64484 54.3134 4.64979 54.3123 4.65432 54.3102L4.74257 54.2597C4.75139 54.2597 4.75139 54.2471 4.74257 54.2421L4.13115 53.8891C4.12648 53.8867 4.12129 53.8854 4.11602 53.8854C4.11076 53.8854 4.10557 53.8867 4.1009 53.8891L4.01391 53.9395C4.00635 53.9458 4.00509 53.9559 4.01265 53.9559Z" fill="#3A2C6D"/>
<path d="M5.11068 54.3001L5.20271 54.353C5.20715 54.3555 5.21214 54.3567 5.2172 54.3567C5.22227 54.3567 5.22726 54.3555 5.2317 54.353L5.31995 54.3026C5.32877 54.3026 5.33003 54.29 5.31995 54.285L5.22792 54.232C5.22317 54.2299 5.21801 54.2287 5.21279 54.2287C5.20757 54.2287 5.20242 54.2299 5.19766 54.232L5.11068 54.2824C5.10438 54.2875 5.10312 54.295 5.11068 54.3001Z" fill="#3A2C6D"/>
<path d="M4.98084 54.2244L5.07287 54.2774C5.07732 54.2798 5.0823 54.2811 5.08737 54.2811C5.09243 54.2811 5.09742 54.2798 5.10187 54.2774L5.19011 54.227C5.19894 54.227 5.19894 54.2144 5.19011 54.2106L5.09808 54.1576C5.09364 54.1552 5.08865 54.1539 5.08359 54.1539C5.07852 54.1539 5.07353 54.1552 5.06909 54.1576L4.98084 54.2081C4.97454 54.2081 4.97328 54.2207 4.98084 54.2244Z" fill="#3A2C6D"/>
<path d="M4.84973 54.1501L4.94302 54.203C4.94756 54.2052 4.95251 54.2063 4.95752 54.2063C4.96253 54.2063 4.96748 54.2052 4.97202 54.203L5.06026 54.1526C5.06783 54.1526 5.06909 54.14 5.06026 54.1349L4.96824 54.082C4.9637 54.0799 4.95875 54.0788 4.95374 54.0788C4.94873 54.0788 4.94378 54.0799 4.93924 54.082L4.85099 54.1324C4.84343 54.1375 4.84343 54.145 4.84973 54.1501Z" fill="#3A2C6D"/>
<path d="M4.71989 54.0744L4.81191 54.1274C4.81636 54.1298 4.82135 54.1311 4.82641 54.1311C4.83148 54.1311 4.83646 54.1298 4.84091 54.1274L4.92916 54.0769C4.93798 54.0769 4.93924 54.0643 4.92916 54.0593L4.83713 54.0064C4.83259 54.0042 4.82764 54.0031 4.82263 54.0031C4.81762 54.0031 4.81267 54.0042 4.80813 54.0064L4.71989 54.058C4.71358 54.0631 4.71232 54.0706 4.71989 54.0744Z" fill="#3A2C6D"/>
<path d="M4.59003 53.9988L4.68206 54.0517C4.68651 54.0542 4.69149 54.0554 4.69656 54.0554C4.70163 54.0554 4.70661 54.0542 4.71106 54.0517L4.7993 54.0001C4.80813 54.0001 4.80939 53.9874 4.7993 53.9837L4.70728 53.9307C4.7026 53.9283 4.69741 53.927 4.69215 53.927C4.68688 53.927 4.68169 53.9283 4.67702 53.9307L4.59003 53.9811C4.58373 53.9874 4.58247 53.995 4.59003 53.9988Z" fill="#3A2C6D"/>
<path d="M4.46019 53.9244L4.55221 53.9774C4.55675 53.9795 4.5617 53.9806 4.56671 53.9806C4.57172 53.9806 4.57667 53.9795 4.58121 53.9774L4.66945 53.9269C4.67702 53.9269 4.67828 53.9143 4.66945 53.9093L4.57743 53.8563C4.57289 53.8542 4.56794 53.8531 4.56293 53.8531C4.55792 53.8531 4.55297 53.8542 4.54843 53.8563L4.46019 53.9068C4.45262 53.9118 4.45262 53.9194 4.46019 53.9244Z" fill="#3A2C6D"/>
<path d="M4.32908 53.8488L4.42111 53.9017C4.42578 53.9042 4.43097 53.9054 4.43623 53.9054C4.4415 53.9054 4.44669 53.9042 4.45136 53.9017L4.53835 53.8513C4.54717 53.8513 4.54843 53.8387 4.53835 53.8349L4.44632 53.7807C4.44178 53.7786 4.43683 53.7775 4.43182 53.7775C4.42681 53.7775 4.42186 53.7786 4.41732 53.7807L4.32908 53.8324C4.32278 53.8374 4.32151 53.845 4.32908 53.8488Z" fill="#3A2C6D"/>
<path d="M4.19923 53.7731L4.28622 53.8299C4.29075 53.832 4.2957 53.8331 4.30072 53.8331C4.30573 53.8331 4.31068 53.832 4.31521 53.8299L4.40346 53.7782C4.41228 53.7782 4.41354 53.7656 4.40346 53.7618L4.31143 53.7088C4.30676 53.7064 4.30157 53.7051 4.2963 53.7051C4.29104 53.7051 4.28585 53.7064 4.28118 53.7088L4.19419 53.7593C4.19293 53.7618 4.19167 53.7693 4.19923 53.7731Z" fill="#3A2C6D"/>
<path d="M4.06939 53.7038L4.16142 53.7567C4.16596 53.7589 4.17091 53.76 4.17592 53.76C4.18093 53.76 4.18588 53.7589 4.19042 53.7567L4.27866 53.7063C4.28749 53.7063 4.28749 53.6937 4.27866 53.6887L4.18663 53.6357C4.1821 53.6336 4.17715 53.6325 4.17214 53.6325C4.16712 53.6325 4.16217 53.6336 4.15764 53.6357L4.06939 53.6861C4.06183 53.6861 4.06183 53.6937 4.06939 53.7038Z" fill="#3A2C6D"/>
<path d="M3.93829 53.6231L4.03031 53.6761C4.03499 53.6785 4.04017 53.6798 4.04544 53.6798C4.05071 53.6798 4.0559 53.6785 4.06057 53.6761L4.14755 53.6256C4.15638 53.6256 4.15764 53.613 4.14755 53.6092L4.05553 53.555C4.05099 53.5529 4.04604 53.5518 4.04103 53.5518C4.03602 53.5518 4.03107 53.5529 4.02653 53.555L3.93829 53.6067C3.93198 53.6118 3.93072 53.6193 3.93829 53.6231Z" fill="#3A2C6D"/>
<path d="M3.80843 53.5475L3.90046 53.6017C3.905 53.6038 3.90995 53.6049 3.91496 53.6049C3.91997 53.6049 3.92492 53.6038 3.92946 53.6017L4.0177 53.55C4.02653 53.55 4.02779 53.5374 4.0177 53.5336L3.92567 53.4807C3.921 53.4782 3.91581 53.477 3.91055 53.477C3.90528 53.477 3.90009 53.4782 3.89542 53.4807L3.80843 53.5311C3.80213 53.5361 3.80087 53.5437 3.80843 53.5475Z" fill="#3A2C6D"/>
<path d="M3.67859 53.4731L3.77061 53.526C3.77515 53.5282 3.7801 53.5293 3.78511 53.5293C3.79012 53.5293 3.79507 53.5282 3.79961 53.526L3.88785 53.4756C3.89668 53.4756 3.89668 53.463 3.88785 53.458L3.79583 53.405C3.79129 53.4029 3.78634 53.4018 3.78133 53.4018C3.77632 53.4018 3.77137 53.4029 3.76683 53.405L3.67859 53.4554C3.67102 53.4605 3.67102 53.4681 3.67859 53.4731Z" fill="#3A2C6D"/>
<path d="M5.24053 54.3757L5.43215 54.4854C5.43669 54.4875 5.44164 54.4886 5.44665 54.4886C5.45166 54.4886 5.45661 54.4875 5.46115 54.4854L5.54813 54.435C5.55696 54.435 5.55822 54.4224 5.54813 54.4173L5.35777 54.3076C5.35333 54.3052 5.34834 54.3039 5.34327 54.3039C5.33821 54.3039 5.33322 54.3052 5.32878 54.3076L5.24053 54.3581C5.23423 54.3631 5.23297 54.3707 5.24053 54.3757Z" fill="#3A2C6D"/>
<path d="M5.04892 54.4098L5.14094 54.464C5.14548 54.4661 5.15043 54.4672 5.15544 54.4672C5.16045 54.4672 5.1654 54.4661 5.16994 54.464L5.25819 54.4123C5.26701 54.4123 5.26827 54.3997 5.25819 54.3959L5.16616 54.3429C5.16171 54.3405 5.15673 54.3392 5.15166 54.3392C5.14659 54.3392 5.14161 54.3405 5.13716 54.3429L5.04892 54.3934C5.04261 54.3984 5.04261 54.406 5.04892 54.4098Z" fill="#3A2C6D"/>
<path d="M4.91655 54.3341L5.00858 54.3871C5.01311 54.3892 5.01806 54.3903 5.02307 54.3903C5.02809 54.3903 5.03304 54.3892 5.03757 54.3871L5.12582 54.3366C5.13464 54.3366 5.1359 54.324 5.12582 54.319L5.03253 54.266C5.02799 54.2639 5.02304 54.2628 5.01803 54.2628C5.01302 54.2628 5.00807 54.2639 5.00353 54.266L4.91655 54.3165C4.91655 54.3228 4.91655 54.3341 4.91655 54.3341Z" fill="#3A2C6D"/>
<path d="M4.79048 54.2597L4.88251 54.3127C4.88695 54.3151 4.89194 54.3164 4.897 54.3164C4.90207 54.3164 4.90705 54.3151 4.9115 54.3127L4.99975 54.2623C5.00731 54.2623 5.00857 54.2497 4.99975 54.2459L4.90772 54.1917C4.90318 54.1895 4.89823 54.1884 4.89322 54.1884C4.88821 54.1884 4.88326 54.1895 4.87872 54.1917L4.79048 54.2434C4.78165 54.2484 4.78165 54.256 4.79048 54.2597Z" fill="#3A2C6D"/>
<path d="M4.66441 54.1841L4.75644 54.2383C4.76119 54.2405 4.76635 54.2416 4.77157 54.2416C4.77679 54.2416 4.78195 54.2405 4.7867 54.2383L4.87368 54.1866C4.88251 54.1866 4.88377 54.174 4.87368 54.1702L4.78165 54.1173C4.77721 54.1149 4.77222 54.1136 4.76716 54.1136C4.76209 54.1136 4.75711 54.1149 4.75266 54.1173L4.66441 54.1677C4.65181 54.1728 4.65055 54.1803 4.66441 54.1841Z" fill="#3A2C6D"/>
<path d="M4.52827 54.1097L4.62029 54.1627C4.62483 54.1648 4.62978 54.1659 4.63479 54.1659C4.6398 54.1659 4.64476 54.1648 4.64929 54.1627L4.73754 54.1122C4.74636 54.1122 4.74762 54.0996 4.73754 54.0946L4.64551 54.0416C4.64076 54.0395 4.6356 54.0384 4.63038 54.0384C4.62516 54.0384 4.62 54.0395 4.61525 54.0416L4.52827 54.0921C4.52196 54.0971 4.5207 54.1047 4.52827 54.1097Z" fill="#3A2C6D"/>
<path d="M4.39842 54.0341L4.49045 54.087C4.49489 54.0895 4.49988 54.0907 4.50494 54.0907C4.51001 54.0907 4.51499 54.0895 4.51944 54.087L4.60769 54.0366C4.61651 54.0366 4.61651 54.024 4.60769 54.0202L4.51566 53.9673C4.51121 53.9648 4.50623 53.9636 4.50116 53.9636C4.4961 53.9636 4.49111 53.9648 4.48666 53.9673L4.39842 54.0177C4.39085 54.0227 4.39085 54.0303 4.39842 54.0341Z" fill="#3A2C6D"/>
<path d="M4.26731 53.9559L4.35934 54.0089C4.36409 54.011 4.36925 54.0122 4.37447 54.0122C4.37969 54.0122 4.38484 54.011 4.38959 54.0089L4.47658 53.9584C4.4854 53.9584 4.48666 53.9458 4.47658 53.9408L4.38455 53.8879C4.38011 53.8854 4.37512 53.8842 4.37005 53.8842C4.36499 53.8842 4.36 53.8854 4.35556 53.8879L4.26731 53.9383C4.26101 53.9471 4.25975 53.9559 4.26731 53.9559Z" fill="#3A2C6D"/>
<path d="M4.13746 53.8841L4.22949 53.937C4.23393 53.9394 4.23892 53.9407 4.24398 53.9407C4.24905 53.9407 4.25403 53.9394 4.25848 53.937L4.34673 53.8866C4.35555 53.8866 4.35681 53.874 4.34673 53.8689L4.2547 53.816C4.24995 53.8138 4.24479 53.8127 4.23957 53.8127C4.23435 53.8127 4.22919 53.8138 4.22444 53.816L4.13746 53.8677C4.13116 53.8715 4.12989 53.879 4.13746 53.8841Z" fill="#3A2C6D"/>
<path d="M4.00762 53.8084L4.09964 53.8614C4.10415 53.8636 4.10911 53.8648 4.11414 53.8648C4.11917 53.8648 4.12413 53.8636 4.12864 53.8614L4.21688 53.8097C4.22571 53.8097 4.22571 53.7971 4.21688 53.7933L4.1236 53.7404C4.11915 53.7379 4.11416 53.7367 4.1091 53.7367C4.10403 53.7367 4.09905 53.7379 4.0946 53.7404L4.00636 53.7908C4.00131 53.7971 4.00005 53.8046 4.00762 53.8084Z" fill="#3A2C6D"/>
<path d="M3.87777 53.7341L3.9698 53.787C3.97434 53.7891 3.97929 53.7902 3.9843 53.7902C3.98931 53.7902 3.99426 53.7891 3.9988 53.787L4.08704 53.7366C4.09461 53.7366 4.09587 53.724 4.08704 53.7189L3.99501 53.666C3.99048 53.6638 3.98553 53.6627 3.98052 53.6627C3.9755 53.6627 3.97055 53.6638 3.96602 53.666L3.87777 53.7164C3.87021 53.7214 3.87021 53.729 3.87777 53.7341Z" fill="#3A2C6D"/>
<path d="M3.74667 53.6584L3.83869 53.7114C3.84337 53.7138 3.84855 53.7151 3.85382 53.7151C3.85909 53.7151 3.86428 53.7138 3.86895 53.7114L3.95593 53.6609C3.96476 53.6609 3.96602 53.6483 3.95593 53.6445L3.86391 53.5903C3.85937 53.5882 3.85442 53.5871 3.84941 53.5871C3.8444 53.5871 3.83945 53.5882 3.83491 53.5903L3.74667 53.642C3.74036 53.6471 3.7391 53.6546 3.74667 53.6584Z" fill="#3A2C6D"/>
<path d="M3.45545 53.4907L3.70758 53.637C3.71212 53.6391 3.71707 53.6402 3.72208 53.6402C3.72709 53.6402 3.73204 53.6391 3.73658 53.637L3.82482 53.5853C3.83365 53.5853 3.83491 53.5727 3.82482 53.5689L3.57269 53.4227C3.56802 53.4202 3.56283 53.419 3.55756 53.419C3.5523 53.419 3.54711 53.4202 3.54244 53.4227L3.45545 53.4731C3.44915 53.4781 3.44789 53.4857 3.45545 53.4907Z" fill="#3A2C6D"/>
<path d="M5.17877 54.4854L5.30483 54.5585C5.30937 54.5607 5.31432 54.5618 5.31933 54.5618C5.32434 54.5618 5.32929 54.5607 5.33383 54.5585L5.42207 54.5068C5.4309 54.5068 5.43216 54.4942 5.42207 54.4904L5.29601 54.4173C5.29147 54.4152 5.28652 54.4141 5.28151 54.4141C5.2765 54.4141 5.27155 54.4152 5.26701 54.4173L5.17877 54.469C5.16868 54.4741 5.16868 54.4816 5.17877 54.4854Z" fill="#3A2C6D"/>
<path d="M6.13441 54.227L4.04425 53.0193V51.3804L4.06064 51.3426L4.07703 51.335C4.09898 51.3221 4.12401 51.3152 4.14951 51.3152C4.17502 51.3152 4.20005 51.3221 4.222 51.335L6.13441 52.4381C6.15624 52.4511 6.17433 52.4696 6.18692 52.4917C6.19951 52.5138 6.20617 52.5387 6.20627 52.5642V54.1072C6.1924 54.1816 6.17727 54.2005 6.13441 54.227Z" fill="#E5E5E5"/>
<path d="M5.94279 52.6335L4.04425 51.4346V51.3804L4.06064 51.3426L4.07703 51.335C4.09898 51.3221 4.12401 51.3152 4.14951 51.3152C4.17502 51.3152 4.20005 51.3221 4.222 51.335L6.13441 52.4381C6.15794 52.4515 6.17684 52.4717 6.18862 52.4961L5.94279 52.6335Z" fill="#E5E5E5"/>
<path d="M4.09207 51.3388L6.09903 52.4973C6.10959 52.5036 6.11838 52.5124 6.12456 52.523C6.13073 52.5336 6.1341 52.5456 6.13433 52.5579V54.227L4.04417 53.0193V51.3665C4.04402 51.3609 4.0454 51.3553 4.04817 51.3503C4.05093 51.3454 4.05498 51.3413 4.05988 51.3384C4.06479 51.3356 4.07036 51.3341 4.07603 51.3342C4.08169 51.3343 4.08724 51.3359 4.09207 51.3388Z" fill="#DCEEFF"/>
<path d="M4.09207 51.3388L6.09903 52.4973C6.10959 52.5036 6.11838 52.5124 6.12456 52.523C6.13073 52.5336 6.1341 52.5456 6.13433 52.5579V54.227L4.04417 53.0193V51.3665C4.04402 51.3609 4.0454 51.3553 4.04817 51.3503C4.05093 51.3454 4.05498 51.3413 4.05988 51.3384C4.06479 51.3356 4.07036 51.3341 4.07603 51.3342C4.08169 51.3343 4.08724 51.3359 4.09207 51.3388Z" fill="#F4F4F4"/>
<path d="M6.13434 54.227V54.1665L4.04417 52.96V53.0193L6.13434 54.227Z" fill="#DBDBDB"/>
<path d="M4.09837 52.9323V51.4258L4.12359 51.4397V52.9197L4.09837 52.9323Z" fill="#1E3779"/>
<path d="M4.1236 51.4397V52.9197L6.06752 54.0379V52.5616L4.1236 51.4397Z" fill="#3A2C6D"/>
<path d="M4.09837 52.9323L6.06751 54.0681V54.0379L4.12359 52.9197L4.09837 52.9323Z" fill="#031F60"/>
<path d="M1.84812 51.0779C1.7977 51.2039 1.92502 51.3527 2.26162 51.4561C2.59821 51.5594 2.62847 51.4258 2.62847 51.4258C2.85297 51.5264 3.07181 51.6392 3.28401 51.7637C3.48571 51.9048 3.57522 52.3146 3.60295 53.0054C3.63447 53.8046 3.63699 54.9897 3.61052 55.1951C3.61052 55.1951 3.23232 55.5733 2.74949 55.5317C2.26666 55.4901 1.45102 55.064 1.25436 54.7338C1.25436 54.0328 1.34134 53.9181 1.22788 53.5147C0.968189 52.5906 0.830778 52.2124 0.958104 51.5972C1.06148 51.093 1.21023 51.0287 1.40816 51.0337C1.55549 51.0407 1.70234 51.0554 1.84812 51.0779Z" fill="#F4F4F4"/>
<path d="M4.39842 53.8639C4.00132 53.9648 3.90803 53.7139 3.85634 53.5071C3.73028 53.0029 3.6622 52.5516 3.56765 52.2667C3.45671 51.9313 3.34073 51.8771 3.17685 51.8116C2.98649 51.7347 2.82135 51.8973 2.88438 52.3246C2.963 52.821 3.0849 53.3094 3.24871 53.7845C3.30669 53.9983 3.41869 54.1937 3.57396 54.3518C3.77944 54.5182 4.0883 54.5106 4.55474 54.3946C4.82831 54.3015 5.09391 54.1864 5.34895 54.0505C5.44981 54.0038 5.52797 53.9723 5.72715 53.8816C5.92447 53.7953 6.09762 53.662 6.23141 53.4933C6.33226 53.3458 6.34613 53.2764 6.32596 53.2411C6.30579 53.2058 6.25284 53.2084 6.19989 53.2701C6.12165 53.3745 6.02511 53.4637 5.91499 53.5336C5.91499 53.5336 6.04105 53.4075 6.10787 53.3206C6.16909 53.2437 6.21956 53.1589 6.25788 53.0684C6.29444 52.9827 6.22006 52.8667 6.16334 52.9272C6.10661 52.9877 6.08139 53.0533 5.97802 53.1794C5.92403 53.2451 5.86222 53.3039 5.79396 53.3546C5.85793 53.2686 5.91485 53.1775 5.96415 53.0823C6.00838 53.0059 6.02982 52.9184 6.02592 52.8302C6.02592 52.786 5.95911 52.7331 5.89986 52.8176C5.83846 52.938 5.76223 53.0502 5.67294 53.1516C5.58217 53.2462 5.50527 53.3004 5.50275 53.2777C5.50023 53.255 5.55822 53.1995 5.58974 53.0911C5.62125 52.9827 5.58974 52.8655 5.52923 52.8529C5.46872 52.8403 5.48006 52.8428 5.43216 52.9461C5.36486 53.0513 5.30464 53.1608 5.25188 53.2739C5.22078 53.3795 5.16455 53.476 5.088 53.555C4.99219 53.6546 4.77662 53.7694 4.39842 53.8639Z" fill="#FFCEA9"/>
<path d="M3.02556 51.7435C3.2903 51.7044 3.47814 51.8242 3.59538 52.2251C3.71262 52.6259 3.7933 52.9562 3.7933 52.9562C3.68866 53.1078 3.52981 53.2134 3.34955 53.2512C3.03313 53.3281 2.91841 53.1768 2.91841 53.1768C2.91841 53.1768 2.83016 52.7558 2.77596 52.4696C2.72175 52.1835 2.70284 51.7914 3.02556 51.7435Z" fill="#EDEDED"/>
<path d="M3.16171 49.6874C3.16171 49.6874 3.58025 49.0507 2.67258 48.9209C2.0183 48.8276 1.59724 49.2474 1.54934 49.7037C1.50269 50.1399 1.77121 50.5925 1.96409 50.7728C2.15467 50.8213 2.35649 50.797 2.53013 50.7047C2.54095 50.5857 2.54516 50.4662 2.54273 50.3467C2.54273 50.3467 2.22379 49.676 3.16171 49.6874Z" fill="#3A2C6D"/>
<path d="M4.97831 57.7442V55.8318L3.45923 56.718L4.04417 57.927L4.97831 57.7442Z" fill="#C4C7D6"/>
<path d="M3.98241 55.9415L4.56483 55.6036L4.97706 55.8419L4.37321 56.1848L3.98241 55.9415Z" fill="#D6D8E5"/>
<path opacity="0.4" d="M27.9991 47.2745L20.8235 43.132C20.3053 42.8332 20.3709 42.3113 20.9684 41.9659L25.6177 39.2819L34.6679 44.5111L30.0199 47.1951C29.4211 47.5405 28.5172 47.577 27.9991 47.2745Z" fill="#D6D8E5"/>
<path d="M28.5235 46.9707L21.3466 42.8269C20.8298 42.5281 20.8953 42.0075 21.4916 41.662L26.1409 38.9781L35.1911 44.2023L30.5418 46.8875C29.9443 47.2316 29.0404 47.2745 28.5235 46.9707Z" fill="#B1B4C4"/>
<path d="M35.1911 44.2023V43.9287L34.7738 44.1695L35.1911 44.2023Z" fill="#B1B4C4"/>
<path d="M20.9974 42.334V42.0554L21.4273 42.2331L20.9974 42.334Z" fill="#B1B4C4"/>
<path d="M28.5235 46.6971L21.3466 42.5533C20.8298 42.2545 20.8953 41.7326 21.4916 41.3885L26.1409 38.702L35.1911 43.9274L30.5418 46.6114C29.9443 46.958 29.0404 46.9946 28.5235 46.6971Z" fill="#D6D8E5"/>
<path d="M26.1661 38.7159L25.0454 34.9995L34.1939 40.2476L35.1911 43.9287L26.1661 38.7159Z" fill="#9EA1AF"/>
<path d="M34.9264 44.0812L35.1911 43.9287L34.794 43.6186L34.9264 44.0812Z" fill="#9EA1AF"/>
<path d="M25.8774 38.8558L24.7567 35.1394L33.9053 40.3875L34.9264 44.0812L25.8774 38.8558Z" fill="#B1B4C4"/>
<path d="M49.1012 50.3442L13.6882 29.8989C13.1915 29.6115 12.7893 28.8425 12.7893 28.1806V0.787907C12.7893 0.126064 13.1915 -0.179014 13.6882 0.108415L49.1012 20.5486C49.5979 20.8348 50 21.6038 50 22.2669V49.6697C50 50.3265 49.5979 50.6316 49.1012 50.3442Z" fill="#C4C7D6"/>
<path d="M49.2827 50.6265L49.676 50.4009L49.5058 49.2373L49.2827 50.6265Z" fill="#C4C7D6"/>
<path d="M12.725 0.276082L13.1108 0.0542068L13.6655 0.370631C13.6655 0.370631 13.0742 0.460137 13.0604 0.456355C13.0465 0.452573 12.725 0.276082 12.725 0.276082Z" fill="#B1B4C4"/>
<path d="M48.7759 50.532L13.3629 30.0867C12.8662 29.7993 12.4628 29.0303 12.4628 28.3685V0.975745C12.4628 0.312641 12.8662 0.0088243 13.3629 0.294992L48.7746 20.7403C49.2713 21.0277 49.6748 21.7967 49.6748 22.4598V49.8512C49.676 50.5143 49.2726 50.8182 48.7759 50.532Z" fill="#E4E7F2"/>
<path d="M48.7141 50.5673L13.3011 30.122C12.8044 29.8346 12.4023 29.0656 12.4023 28.4038V1.00852C12.4023 0.34668 12.8044 0.0416018 13.3011 0.329031L48.7141 20.7768C49.2108 21.063 49.613 21.832 49.613 22.4951V49.8878C49.613 50.5522 49.2108 50.8547 48.7141 50.5673Z" fill="#201D38"/>
<path opacity="0.3" d="M49.1264 48.902L12.8511 27.9587L12.87 1.12072C12.87 0.845898 13.0629 0.73496 13.3011 0.868589L48.7141 21.3176C48.8396 21.3993 48.9441 21.5095 49.019 21.6392C49.0939 21.7689 49.1372 21.9144 49.1453 22.0639L49.1264 48.902Z" fill="#3A3756"/>
<path d="M34.8722 17.9114L32.4681 16.5234V15.656L34.8722 17.044V17.9114Z" fill="#A298E2"/>
<path d="M40.4291 21.1222L35.3222 18.171V17.3037L40.4291 20.2549V21.1222Z" fill="#F4CE2C"/>
<path d="M34.8722 20.686L32.4681 19.2993V18.432L34.8722 19.8187V20.686Z" fill="#A298E2"/>
<path d="M37.014 21.9442L35.3222 20.947V20.0797L37.014 21.0769V21.9442Z" fill="#4D3BFF"/>
<path d="M34.8722 22.074L32.4681 20.686V19.8187L34.8722 21.2067V22.074Z" fill="#A298E2"/>
<path d="M38.1763 23.9814L35.3222 22.3337V21.4664L38.1763 23.1141V23.9814Z" fill="#4D3BFF"/>
<path d="M34.8722 23.4607L32.4681 22.074V21.2067L34.8722 22.5947V23.4607Z" fill="#A298E2"/>
<path d="M42.8496 28.0571L35.3222 23.7217V22.8544L42.8496 27.191V28.0571Z" fill="#FF8657"/>
<path d="M34.8722 19.2993L32.4681 17.9114V17.044L34.8722 18.432V19.2993Z" fill="#A298E2"/>
<path d="M44.699 24.9786L35.3222 19.559V18.6917L44.699 24.1112V24.9786Z" fill="#A298E2"/>
<path d="M34.8722 24.8487L32.4681 23.4607V22.5934L34.8722 23.9814V24.8487Z" fill="#A298E2"/>
<path d="M43.4333 29.8787L35.3222 25.1097V24.2423L43.4333 29.0114V29.8787Z" fill="#C33AFC"/>
<path d="M34.8722 27.6247L32.4681 26.2367V25.3694L34.8722 26.7573V27.6247Z" fill="#A298E2"/>
<path d="M44.7859 33.348L35.3222 27.8844V27.017L44.7859 32.4807V33.348Z" fill="#A298E2"/>
<path d="M34.8722 29.0114L32.4681 27.6247V26.7573L34.8722 28.1441V29.0114Z" fill="#A298E2"/>
<path d="M38.1763 30.92L35.3222 29.2711V28.405L38.1763 30.0527V30.92Z" fill="#C33AFC"/>
<path d="M34.8722 30.3994L32.4681 29.0114V28.1441L34.8722 29.532V30.3994Z" fill="#A298E2"/>
<path d="M41.154 34.0414L35.3222 30.6591V29.7917L41.154 33.1741V34.0414Z" fill="#4D3BFF"/>
<path d="M34.8722 26.2367L32.4681 24.8487V23.9814L34.8722 25.3694V26.2367Z" fill="#A298E2"/>
<path d="M36.3736 27.104L35.3222 26.4964V25.6291L36.3736 26.2367V27.104Z" fill="#4D3BFF"/>
<path d="M34.8722 31.7874L32.4681 30.3994V29.532L34.8722 30.92V31.7874Z" fill="#A298E2"/>
<path d="M39.0865 34.2154L35.3222 32.047V31.1797L39.0865 33.348V34.2154Z" fill="#C33AFC"/>
<path d="M34.8722 34.562L32.4681 33.1741V32.3067L34.8722 33.6947V34.562Z" fill="#A298E2"/>
<path d="M40.8149 37.9532L35.3222 34.8217V33.9544L40.8149 37.0859V37.9532Z" fill="#FF8657"/>
<path d="M34.8722 35.95L32.4681 34.562V33.6947L34.8722 35.0827V35.95Z" fill="#A298E2"/>
<path d="M36.008 36.6434L35.3222 36.2097V35.3424L36.008 35.7761V36.6434Z" fill="#A298E2"/>
<path d="M34.8722 37.3368L32.4681 35.95V35.0827L34.8722 36.4694V37.3368Z" fill="#A298E2"/>
<path d="M38.4726 39.4118L35.3222 37.5977V36.7304L38.4726 38.5445V39.4118Z" fill="#F4CE2C"/>
<path d="M34.8722 33.1741L32.4681 31.7874V30.9188L34.8722 32.3067V33.1741Z" fill="#A298E2"/>
<path d="M39.7055 35.95L35.3222 33.4338V32.5677L39.7055 35.0827V35.95Z" fill="#4D3BFF"/>
<path d="M19.3233 9.23932L16.9192 7.85135V6.98402L19.3233 8.372V9.23932Z" fill="#A298E2"/>
<path d="M29.9884 15.3963L19.7733 9.49902V8.63169L29.9884 14.529V15.3963Z" fill="#C33AFC"/>
<path d="M19.3233 12.014L16.9192 10.626V9.75871L19.3233 11.1467V12.014Z" fill="#A298E2"/>
<path d="M26.5329 16.1767L19.7733 12.2737V11.4064L26.5329 15.3094V16.1767Z" fill="#F4CE2C"/>
<path d="M19.3233 13.402L16.9192 12.014V11.1467L19.3233 12.5347V13.402Z" fill="#A298E2"/>
<path d="M28.1857 18.5177L19.7733 13.6617V12.7944L28.1857 17.6504V18.5177Z" fill="#FF8657"/>
<path d="M19.3233 14.7887L16.9192 13.402V12.5347L19.3233 13.9214V14.7887Z" fill="#A298E2"/>
<path d="M25.6316 18.432L19.7733 15.0497V14.1823L25.6316 17.5647V18.432Z" fill="#A298E2"/>
<path d="M19.3233 10.626L16.9192 9.23806V8.37199L19.3233 9.75871V10.626Z" fill="#A298E2"/>
<path d="M24.8802 13.8357L19.7733 10.887V10.0197L24.8802 12.9683V13.8357Z" fill="#4D3BFF"/>
<path d="M19.3233 16.1767L16.9192 14.7887V13.9214L19.3233 15.3094V16.1767Z" fill="#A298E2"/>
<path d="M22.7775 18.171L19.7733 16.4364V15.5691L22.7775 17.3037V18.171Z" fill="#C33AFC"/>
<path d="M19.3233 18.9514L16.9192 17.5634V16.6973L19.3233 18.0841V18.9514Z" fill="#A298E2"/>
<path d="M29.237 24.676L19.7733 19.2123V18.345L29.237 23.8087V24.676Z" fill="#F4CE2C"/>
<path d="M19.3233 20.3394L16.9192 18.9514V18.0841L19.3233 19.472V20.3394Z" fill="#A298E2"/>
<path d="M22.6274 22.2467L19.7733 20.5991V19.7317L22.6274 21.3794V22.2467Z" fill="#FF8657"/>
<path d="M19.3233 21.7273L16.9192 20.3394V19.472L19.3233 20.86V21.7273Z" fill="#A298E2"/>
<path d="M28.1857 26.8431L19.7733 21.987V21.1197L28.1857 25.977V26.8431Z" fill="#A298E2"/>
<path d="M19.3233 17.5647L16.9192 16.1767V15.3094L19.3233 16.6973V17.5647Z" fill="#A298E2"/>
<path d="M27.7344 22.4207L19.7733 17.8244V16.957L27.7344 21.5534V22.4207Z" fill="#4D3BFF"/>
<path d="M19.3233 23.1141L16.9192 21.7261V20.86L19.3233 22.2467V23.1141Z" fill="#A298E2"/>
<path d="M20.8247 23.9814L19.7733 23.375V22.5077L20.8247 23.1141V23.9814Z" fill="#C33AFC"/>
<path d="M19.3233 25.89L16.9192 24.502V23.6347L19.3233 25.0227V25.89Z" fill="#A298E2"/>
<path d="M21.7261 27.2767L19.7733 26.1497V25.2824L21.7261 26.4094V27.2767Z" fill="#F4CE2C"/>
<path d="M19.3233 27.2767L16.9192 25.89V25.0227L19.3233 26.4094V27.2767Z" fill="#A298E2"/>
<path d="M24.8802 30.4864L19.7733 27.5377V26.6704L24.8802 29.619V30.4864Z" fill="#FF8657"/>
<path d="M19.3233 28.6647L16.9192 27.2767V26.4094L19.3233 27.7974V28.6647Z" fill="#A298E2"/>
<path d="M27.8844 33.6077L19.7733 28.9244V28.0571L27.8844 32.7404V33.6077Z" fill="#A298E2"/>
<path d="M19.3233 24.502L16.9192 23.1141V22.2467L19.3233 23.6347V24.502Z" fill="#A298E2"/>
<path d="M29.9884 30.6591L19.7733 24.7617V23.8944L29.9884 29.7917V30.6591Z" fill="#4D3BFF"/>
<path opacity="0.4" d="M37.7881 63.0326C40.7011 63.0326 43.0626 61.669 43.0626 59.9869C43.0626 58.3048 40.7011 56.9411 37.7881 56.9411C34.875 56.9411 32.5135 58.3048 32.5135 59.9869C32.5135 61.669 34.875 63.0326 37.7881 63.0326Z" fill="#D6D8E5"/>
<path d="M43.5808 59.5545V51.4346L33.053 51.6994L33.0757 59.1876C32.8791 60.089 33.3783 61.0307 34.5772 61.7228C36.6371 62.9116 39.9765 62.9129 42.0365 61.7228C43.0714 61.1215 43.5858 60.3374 43.5808 59.5545Z" fill="#A6CE28"/>
<path d="M38.3062 54.4766C41.2193 54.4766 43.5808 53.113 43.5808 51.4308C43.5808 49.7487 41.2193 48.3851 38.3062 48.3851C35.3931 48.3851 33.0316 49.7487 33.0316 51.4308C33.0316 53.113 35.3931 54.4766 38.3062 54.4766Z" fill="#BCD64D"/>
<path d="M42.7475 51.4346C42.7475 51.9301 42.3352 52.4507 41.6192 52.8655C40.8376 53.3143 39.7698 53.5916 38.6453 53.637C38.5331 53.637 38.4209 53.6445 38.3075 53.6445C37.0594 53.6445 35.853 53.3596 34.9945 52.8655C34.2784 52.4507 33.8662 51.9301 33.8662 51.4346C33.8662 50.9392 34.2784 50.4185 34.9945 50.0038C35.853 49.5083 37.0594 49.2234 38.3062 49.2234C38.4197 49.2234 38.5331 49.2234 38.6453 49.231C39.7698 49.2764 40.8376 49.5537 41.6192 50.0038C42.3352 50.4148 42.7475 50.9304 42.7475 51.4346Z" fill="#28221C"/>
<path opacity="0.07" d="M42.7475 51.4346C42.7475 51.9301 42.3352 52.4507 41.6192 52.8655C40.8376 53.3143 39.7698 53.5916 38.6453 53.637C37.5208 53.5916 36.4518 53.3143 35.6714 52.8655C34.9541 52.4431 34.5419 51.9263 34.5419 51.4346C34.5419 50.943 34.9528 50.4185 35.6689 50.0038C36.4505 49.5537 37.5195 49.2764 38.644 49.231C39.7685 49.2764 40.8363 49.5537 41.6179 50.0038C42.3352 50.4148 42.7475 50.9304 42.7475 51.4346Z" fill="white"/>
<path d="M42.8092 55.1926L41.6898 54.5447L41.1452 54.8598L41.6898 55.175V55.3817L42.7399 55.9868L42.7084 56.181C42.8609 56.307 43.4043 57.3156 43.4043 57.3156L43.4421 57.2803V59.8936C43.4421 60.5794 43.0399 60.3474 42.8685 60.2478L41.6898 59.5671L41.1452 59.881L41.6898 60.1949V60.4016L42.8685 61.0824C42.9876 61.1538 43.1145 61.2114 43.2467 61.2538L43.1761 61.5816L43.7862 61.2375H43.7951H43.8039C44.056 61.0887 44.1632 60.7269 44.1632 60.321V57.579C44.1682 56.4205 43.2795 55.5116 42.8092 55.1926Z" fill="#8DA01F"/>
<path d="M42.3239 61.4013L41.1452 60.7206V59.881L42.3239 60.5617C42.4953 60.6601 42.8975 60.8933 42.8975 60.2062V57.4769C42.8975 56.8315 42.3138 56.3852 42.2142 56.3146L41.1452 55.6969V54.8598L42.2646 55.5078C42.7361 55.8267 43.6186 56.7369 43.6186 57.8955V60.6273C43.6186 61.3648 43.282 61.9535 42.3239 61.4013Z" fill="#99B524"/>
<path opacity="0.4" d="M5.21531 46.8975C7.22118 46.8975 8.84725 45.9584 8.84725 44.7998C8.84725 43.6413 7.22118 42.7021 5.21531 42.7021C3.20945 42.7021 1.58337 43.6413 1.58337 44.7998C1.58337 45.9584 3.20945 46.8975 5.21531 46.8975Z" fill="#D6D8E5"/>
<path d="M5.73344 46.5092C7.73931 46.5092 9.36538 45.5701 9.36538 44.4115C9.36538 43.253 7.73931 42.3138 5.73344 42.3138C3.72758 42.3138 2.1015 43.253 2.1015 44.4115C2.1015 45.5701 3.72758 46.5092 5.73344 46.5092Z" fill="#D6D8E5"/>
<path d="M0.871109 37.2409L2.14185 44.5565H9.35656L10.5958 37.2939L0.871109 37.2409Z" fill="#D6D8E5"/>
<path d="M5.73345 39.9602C8.42163 39.9602 10.6008 38.7021 10.6008 37.1502C10.6008 35.5983 8.42163 34.3402 5.73345 34.3402C3.04527 34.3402 0.866074 35.5983 0.866074 37.1502C0.866074 38.7021 3.04527 39.9602 5.73345 39.9602Z" fill="#E4E6EF"/>
<path d="M5.73345 39.3399C4.54087 39.3399 3.42898 39.0777 2.60199 38.5999C1.89224 38.1915 1.48631 37.662 1.48631 37.1502C1.48631 36.6383 1.89224 36.1089 2.60199 35.7004C3.42772 35.2226 4.54087 34.9604 5.73345 34.9604C6.92603 34.9604 8.03918 35.2226 8.86491 35.7004C9.57466 36.1089 9.98059 36.6383 9.98059 37.1502C9.98059 37.662 9.58096 38.1978 8.86491 38.5999C8.03918 39.0802 6.93359 39.3399 5.73345 39.3399Z" fill="#28221C"/>
<path d="M7.82739 34.9365C7.89628 33.9911 7.74574 33.0426 7.38754 32.1651C7.02934 31.2875 6.47317 30.5046 5.76244 29.8775L5.74857 29.8636V29.8901C5.03719 30.5173 4.48051 31.3005 4.12207 32.1786C3.76363 33.0566 3.61314 34.0057 3.68236 34.9516L0.897583 34.6831C2.07251 39.1092 5.76244 38.7285 5.76244 38.7285V38.7197C6.04105 38.7411 9.48263 38.9189 10.6084 34.673L7.82739 34.9365Z" fill="#99B524"/>
<path d="M5.76244 38.7285C5.76244 38.7285 5.51031 35.2819 0.886238 32.961C0.882456 32.961 -0.209269 38.6869 5.76244 38.7285Z" fill="#A6CE28"/>
<path d="M5.73344 38.7285C5.73344 38.7285 5.98558 35.2819 10.6096 32.961C10.6096 32.961 11.7052 38.6869 5.73344 38.7285Z" fill="#A6CE28"/>
</g>
<defs>
<clipPath id="clip0_7_732">
<rect width="50" height="63.0326" fill="white"/>
</clipPath>
</defs>
</svg>
