<svg width="40" height="40" viewBox="0 0 40 40" fill="none" xmlns="http://www.w3.org/2000/svg">
<path d="M39.1691 16.5831C38.2685 15.9582 36.2049 15.7239 34.5916 16.0363C34.4041 14.4743 33.5411 13.1076 32.0402 11.897L31.1774 11.2722L30.5769 12.1704C29.8266 13.3419 29.4514 14.9821 29.5639 16.5442C29.6014 17.0907 29.789 18.067 30.3518 18.9262C29.8266 19.2386 28.7385 19.6291 27.3128 19.6291H0.185931L0.110951 19.9415C-0.151789 21.5034 -0.151789 26.3847 2.92486 30.1335C5.25109 32.9841 8.70295 34.4291 13.2428 34.4291C23.0729 34.4291 30.3518 29.7038 33.7662 21.1519C35.1169 21.191 38.0059 21.1519 39.4693 18.2231C39.5068 18.145 39.5817 17.9888 39.8443 17.4031L39.9944 17.0907L39.1691 16.5831ZM21.8723 5.57095H17.7453V9.47596H21.8723V5.57095ZM21.8723 10.257H17.7453V14.162H21.8723V10.2568V10.257ZM16.9947 10.257H12.8677V14.162H16.9947V10.2568V10.257ZM12.1172 10.257H7.99002V14.162H12.1172V10.2568V10.257ZM7.2396 14.943H3.11246V18.8481H7.23945V14.9429L7.2396 14.943ZM12.1172 14.943H7.99002V18.8481H12.1172V14.9429V14.943ZM16.9947 14.943H12.8677V18.8481H16.9947V14.9429V14.943ZM21.8724 14.943H17.7451V18.8481H21.8724V14.9429V14.943ZM26.75 14.943H22.6227V18.8481H26.75V14.9429V14.943Z" fill="#2396ED"/>
</svg>
