<svg width="21" height="21" viewBox="0 0 21 21" fill="none" xmlns="http://www.w3.org/2000/svg">
<path d="M10.1667 4C6 4 2.44167 6.59167 1 10.25C2.44167 13.9083 6 16.5 10.1667 16.5C14.3333 16.5 17.8917 13.9083 19.3333 10.25C17.8917 6.59167 14.3333 4 10.1667 4ZM10.1667 14.4167C7.86667 14.4167 6 12.55 6 10.25C6 7.95 7.86667 6.08333 10.1667 6.08333C12.4667 6.08333 14.3333 7.95 14.3333 10.25C14.3333 12.55 12.4667 14.4167 10.1667 14.4167ZM10.1667 7.75C8.78333 7.75 7.66667 8.86667 7.66667 10.25C7.66667 11.6333 8.78333 12.75 10.1667 12.75C11.55 12.75 12.6667 11.6333 12.6667 10.25C12.6667 8.86667 11.55 7.75 10.1667 7.75Z" fill="white"/>
</svg>
