<svg width="40" height="40" viewBox="0 0 40 40" fill="none" xmlns="http://www.w3.org/2000/svg">
<path d="M13.3333 40C17.0133 40 20 37.0133 20 33.3333V26.6667H13.3333C9.65333 26.6667 6.66667 29.6533 6.66667 33.3333C6.66667 37.0133 9.65333 40 13.3333 40Z" fill="#0ACF83"/>
<path d="M6.66667 20C6.66667 16.32 9.65333 13.3333 13.3333 13.3333H20V26.6667H13.3333C9.65333 26.6667 6.66667 23.68 6.66667 20Z" fill="#A259FF"/>
<path d="M6.66667 6.66667C6.66667 2.98667 9.65333 0 13.3333 0H20V13.3333H13.3333C9.65333 13.3333 6.66667 10.3467 6.66667 6.66667Z" fill="#F24E1E"/>
<path d="M20 0H26.6667C30.3467 0 33.3333 2.98667 33.3333 6.66667C33.3333 10.3467 30.3467 13.3333 26.6667 13.3333H20V0Z" fill="#FF7262"/>
<path d="M33.3333 20C33.3333 23.68 30.3467 26.6667 26.6667 26.6667C22.9867 26.6667 20 23.68 20 20C20 16.32 22.9867 13.3333 26.6667 13.3333C30.3467 13.3333 33.3333 16.32 33.3333 20Z" fill="#1ABCFE"/>
</svg>
