<svg width="40" height="40" viewBox="0 0 40 40" fill="none" xmlns="http://www.w3.org/2000/svg">
<g clip-path="url(#clip0_6_92)">
<path d="M39.2456 18.2178L21.7812 0.754366C20.7761 -0.251415 19.1448 -0.251415 18.1384 0.754366L14.5119 4.38093L19.1123 8.9814C20.1814 8.62015 21.4073 8.86249 22.2595 9.71468C23.1158 10.5723 23.3564 11.8087 22.9864 12.8812L27.42 17.315C28.4927 16.9455 29.7303 17.1845 30.587 18.0426C31.7844 19.2395 31.7844 21.1794 30.587 22.377C29.3894 23.5748 27.4495 23.5748 26.2512 22.377C25.3506 21.4755 25.1281 20.1528 25.5841 19.0433L21.4494 14.9086L21.4489 25.7894C21.7486 25.9376 22.0224 26.1333 22.2595 26.3691C23.4569 27.5659 23.4569 29.5059 22.2595 30.7045C21.0619 31.9017 19.1211 31.9017 17.9252 30.7045C16.7278 29.5059 16.7278 27.5661 17.9252 26.3692C18.2121 26.0821 18.5531 25.8548 18.9284 25.7003V14.7181C18.5525 14.5647 18.2114 14.3372 17.9252 14.0492C17.018 13.1433 16.7998 11.8122 17.2647 10.6983L12.7297 6.1628L0.754687 18.137C-0.251563 19.1437 -0.251563 20.7751 0.754687 21.7811L18.2194 39.2448C19.2248 40.2508 20.8558 40.2508 21.8625 39.2448L39.2455 21.8622C40.2514 20.8559 40.2514 19.2236 39.2455 18.2178" fill="#DE4C36"/>
</g>
<defs>
<clipPath id="clip0_6_92">
<rect width="40" height="40" fill="white"/>
</clipPath>
</defs>
</svg>
