<svg width="40" height="40" viewBox="0 0 40 40" fill="none" xmlns="http://www.w3.org/2000/svg">
<path d="M7.3775 34.0013L4.56875 2.5H35.4312L32.6187 33.9963L19.9812 37.5L7.3775 34.0013Z" fill="#E44F26"/>
<path d="M20 34.8225L30.2125 31.9912L32.615 5.07625H20V34.8225Z" fill="#F1662A"/>
<path d="M20 16.7588H14.8875L14.535 12.8025H20V8.93875H10.3125L10.405 9.97625L11.3538 20.6225H20V16.7588ZM20 26.7925L19.9825 26.7975L15.68 25.6363L15.405 22.555H11.5262L12.0675 28.62L19.9825 30.8175L20 30.8125V26.7925Z" fill="#EBEBEB"/>
<path d="M19.9863 16.7588V20.6225H24.7438L24.2963 25.6338L19.9863 26.7963V30.8162L27.9075 28.62L27.965 27.9675L28.8725 17.7963L28.9675 16.7588H19.9863ZM19.9863 8.93875V12.8025H29.3188L29.3963 11.935L29.5725 9.97625L29.665 8.93875H19.9863Z" fill="white"/>
</svg>
