<svg width="40" height="40" viewBox="0 0 40 40" fill="none" xmlns="http://www.w3.org/2000/svg">
<g clip-path="url(#clip0_6_80)">
<path d="M0 0H40V40H0V0Z" fill="#F7DF1E"/>
<path d="M10.5175 33.4269L13.5784 31.5744C14.1691 32.6214 14.7062 33.5073 15.9948 33.5073C17.23 33.5073 18.0089 33.0242 18.0089 31.1448V18.3639H21.7678V31.198C21.7678 35.0912 19.4856 36.8634 16.1559 36.8634C13.1489 36.8634 11.4034 35.3061 10.5173 33.4266M23.8095 33.0241L26.8702 31.252C27.6759 32.5678 28.7231 33.5344 30.5756 33.5344C32.1333 33.5344 33.1264 32.7556 33.1264 31.6816C33.1264 30.3928 32.1061 29.9362 30.3877 29.1847L29.4481 28.7816C26.7361 27.6273 24.9372 26.1773 24.9372 23.1164C24.9372 20.297 27.0852 18.1489 30.4416 18.1489C32.8313 18.1489 34.5497 18.9814 35.7847 21.1562L32.8578 23.0359C32.2133 21.8814 31.5155 21.425 30.4414 21.425C29.3405 21.425 28.6423 22.1231 28.6423 23.0359C28.6423 24.1636 29.3405 24.6203 30.9514 25.3184L31.8911 25.7211C35.0864 27.0906 36.8853 28.4867 36.8853 31.628C36.8853 35.0114 34.2272 36.8639 30.6561 36.8639C27.1656 36.8639 24.9102 35.1992 23.8094 33.0242" fill="black"/>
</g>
<defs>
<clipPath id="clip0_6_80">
<rect width="40" height="40" fill="white"/>
</clipPath>
</defs>
</svg>
