<svg width="40" height="40" viewBox="0 0 40 40" fill="none" xmlns="http://www.w3.org/2000/svg">
<g clip-path="url(#clip0_717_4013)">
<path d="M13.3647 37.4121C12.5055 37.4121 11.694 37.0302 11.145 36.3376L2.79151 25.9504C2.24251 25.2579 2.02777 24.3745 2.24251 23.5147L5.22596 10.5486C5.41686 9.68896 5.98971 8.99643 6.77744 8.61446L18.8544 2.83566C19.2364 2.64482 19.666 2.54925 20.0957 2.54925C20.5253 2.54925 20.9548 2.64468 21.3367 2.83581L33.4139 8.5906C34.2015 8.97258 34.7743 9.66511 34.9652 10.5248L37.9487 23.4908C38.1397 24.3505 37.9487 25.234 37.3998 25.9266L29.046 36.3138C28.497 36.9823 27.6856 37.3883 26.8263 37.3883L13.365 37.4121H13.3647Z" fill="#326DE6"/>
<path d="M20.0715 3.14622C20.4058 3.14622 20.7399 3.21778 21.0502 3.36106L33.1273 9.11585C33.7478 9.42626 34.2252 9.99937 34.3684 10.668L37.3518 23.6341C37.5189 24.3267 37.3518 25.043 36.8983 25.5921L28.5447 35.9795C28.1151 36.5286 27.4467 36.839 26.7546 36.839H13.3647C12.6725 36.839 12.0043 36.5286 11.5747 35.9795L3.22101 25.5921C2.79137 25.043 2.62417 24.3267 2.76753 23.6341L5.75098 10.668C5.91803 9.97552 6.37151 9.40241 6.99204 9.11585L19.0693 3.33735C19.3796 3.21793 19.7376 3.14636 20.0717 3.14636L20.0715 3.14622ZM20.0715 2.02386C19.5704 2.02386 19.0692 2.14328 18.5917 2.35812L6.51472 8.13691C5.55993 8.5906 4.89171 9.42626 4.65297 10.4531L1.66953 23.4193C1.43094 24.4461 1.66953 25.4967 2.33789 26.3325L10.6915 36.7198C11.3361 37.5316 12.3146 37.9853 13.3409 37.9853H26.7306C27.757 37.9853 28.7356 37.5316 29.38 36.7198L37.7338 26.3324C38.402 25.5206 38.6407 24.4461 38.402 23.4191L35.4185 10.4531C35.18 9.42626 34.5116 8.5906 33.5569 8.13691L21.5275 2.35798C21.074 2.14328 20.5728 2.02386 20.0715 2.02386Z" fill="white"/>
<path d="M32.1725 22.6073C32.1487 22.6073 32.1487 22.6073 32.1725 22.6073H32.1487C32.1248 22.6073 32.101 22.6073 32.101 22.5835C32.0533 22.5835 32.0056 22.5596 31.9578 22.5596C31.7907 22.5358 31.6475 22.5119 31.5043 22.5119C31.4326 22.5119 31.3611 22.5119 31.2656 22.4879H31.2417C30.7406 22.4402 30.3348 22.3925 29.9528 22.2731C29.7858 22.2013 29.7381 22.1059 29.6903 22.0104C29.6903 21.9865 29.6664 21.9865 29.6664 21.9626L29.3561 21.8672C29.5027 20.7439 29.4461 19.6034 29.1891 18.5001C28.9285 17.3877 28.4762 16.3292 27.8525 15.372L28.0912 15.1572V15.1095C28.0912 14.9901 28.1151 14.8706 28.2105 14.7512C28.4969 14.4885 28.855 14.2737 29.2846 14.011C29.3561 13.9633 29.4277 13.9394 29.4994 13.8916C29.6426 13.82 29.7619 13.7484 29.9051 13.6529C29.929 13.629 29.9767 13.6052 30.0245 13.5574C30.0484 13.5334 30.0722 13.5334 30.0722 13.5096C30.4063 13.223 30.478 12.7455 30.2393 12.4349C30.1199 12.2678 29.9051 12.1724 29.6903 12.1724C29.4995 12.1724 29.3323 12.244 29.1652 12.3634L29.1175 12.4111C29.0699 12.4349 29.0459 12.4828 28.9982 12.5066C28.8788 12.6261 28.7833 12.7215 28.6879 12.8409C28.6402 12.8886 28.5925 12.9603 28.5209 13.008C28.1866 13.3663 27.8763 13.6529 27.5661 13.8677C27.4945 13.9154 27.423 13.9394 27.3513 13.9394C27.3036 13.9394 27.2558 13.9394 27.2081 13.9154H27.1604L26.8739 14.1066C26.5636 13.7723 26.2295 13.4857 25.8954 13.1992C24.4567 12.0741 22.7252 11.3861 20.907 11.2172L20.8831 10.9067L20.8354 10.859C20.7638 10.7873 20.6684 10.7158 20.6444 10.5486C20.6205 10.1665 20.6684 9.73667 20.7161 9.25913V9.23528C20.7161 9.16357 20.7399 9.06814 20.7638 8.99643C20.7876 8.8533 20.8114 8.70988 20.8354 8.54275V8.3279C20.8354 7.89807 20.5012 7.53995 20.0955 7.53995C19.9045 7.53995 19.7136 7.63537 19.5704 7.77865C19.4273 7.92193 19.3556 8.11292 19.3556 8.3279V8.51889C19.3556 8.68602 19.3795 8.8293 19.4272 8.97258C19.451 9.04429 19.451 9.11585 19.4749 9.21142V9.23528C19.5225 9.71282 19.5942 10.1427 19.5465 10.5248C19.5227 10.6919 19.4272 10.7635 19.3556 10.8352L19.3079 10.8829L19.284 11.1933C18.8543 11.241 18.4247 11.2887 17.995 11.3843C16.1573 11.7903 14.5343 12.7216 13.2694 14.0587L13.0306 13.8916H12.9829C12.9353 13.8916 12.8874 13.9154 12.8397 13.9154C12.7681 13.9154 12.6965 13.8916 12.6248 13.8439C12.3146 13.629 12.0043 13.3185 11.6702 12.9603C11.6225 12.9126 11.5748 12.8409 11.5031 12.7932C11.4076 12.6738 11.3121 12.5782 11.1927 12.4589C11.1689 12.4349 11.1212 12.4112 11.0735 12.3634C11.0497 12.3395 11.0258 12.3395 11.0258 12.3157C10.8779 12.1934 10.6925 12.1259 10.5007 12.1245C10.2858 12.1245 10.071 12.2201 9.95166 12.3872C9.71293 12.6976 9.7846 13.1752 10.1187 13.4617C10.1426 13.4617 10.1426 13.4857 10.1664 13.4857C10.2141 13.5096 10.2381 13.5573 10.2858 13.5812C10.429 13.6766 10.5484 13.7483 10.6916 13.82C10.7632 13.8439 10.8348 13.8916 10.9065 13.9394C11.3359 14.202 11.694 14.417 11.9805 14.6797C12.0998 14.7989 12.0998 14.9184 12.0998 15.0378V15.0855L12.3384 15.3005C12.2907 15.372 12.243 15.4199 12.2191 15.4915C11.0257 17.3779 10.5722 19.5987 10.8825 21.7955L10.5722 21.8909C10.5722 21.9149 10.5484 21.9149 10.5484 21.9386C10.5007 22.0342 10.429 22.1298 10.2858 22.2013C9.92782 22.3208 9.49818 22.3686 8.99701 22.4163H8.97303C8.90149 22.4163 8.80597 22.4163 8.73444 22.4402C8.59123 22.4402 8.44801 22.464 8.28096 22.4879C8.23327 22.4879 8.18558 22.5119 8.13775 22.5119C8.1139 22.5119 8.09006 22.5119 8.06607 22.5358C7.63644 22.6312 7.37386 23.0372 7.44553 23.4191C7.51721 23.7535 7.82748 23.9685 8.20928 23.9685C8.28096 23.9685 8.32865 23.9685 8.40032 23.9445C8.42417 23.9445 8.44801 23.9445 8.44801 23.9207C8.4957 23.9207 8.54339 23.8968 8.59108 23.8968C8.75828 23.8491 8.87765 23.8014 9.02086 23.7297C9.09239 23.7058 9.16393 23.658 9.2356 23.6343H9.25945C9.71293 23.467 10.1187 23.3237 10.5007 23.276H10.5484C10.6916 23.276 10.7871 23.3476 10.8586 23.3954C10.8825 23.3954 10.8825 23.4193 10.9063 23.4193L11.2406 23.3716C11.8134 25.1385 12.9113 26.7145 14.3672 27.8607C14.7013 28.1233 15.0354 28.3383 15.3935 28.5533L15.2503 28.8635C15.2503 28.8875 15.2742 28.8875 15.2742 28.9112C15.3219 29.0068 15.3696 29.1262 15.3219 29.2933C15.1788 29.6516 14.9639 30.0097 14.7013 30.4157V30.4396C14.6536 30.5113 14.606 30.559 14.5583 30.6306C14.4627 30.75 14.3911 30.8694 14.2955 31.0127C14.2717 31.0365 14.2479 31.0842 14.224 31.1321C14.224 31.1559 14.2002 31.1798 14.2002 31.1798C14.0093 31.5858 14.1525 32.0395 14.5104 32.2066C14.6058 32.2543 14.7013 32.2783 14.7969 32.2783C15.0833 32.2783 15.3697 32.0872 15.5129 31.8245C15.5129 31.8006 15.5368 31.7768 15.5368 31.7768C15.5606 31.7291 15.5844 31.6813 15.6083 31.6574C15.68 31.4902 15.7038 31.3708 15.7515 31.2275L15.8232 31.0127C15.9902 30.5351 16.1096 30.153 16.3243 29.8187C16.4197 29.6755 16.5392 29.6516 16.6346 29.6038C16.6585 29.6038 16.6585 29.6038 16.6823 29.5799L16.8495 29.2695C17.8997 29.6755 19.0454 29.8903 20.1909 29.8903C20.8831 29.8903 21.5992 29.8187 22.2675 29.6516C22.6881 29.5575 23.1026 29.4379 23.5086 29.2933L23.6517 29.556C23.6757 29.556 23.6757 29.556 23.6995 29.5799C23.8189 29.6038 23.9143 29.6516 24.0098 29.7949C24.2007 30.1292 24.3439 30.5351 24.5109 30.9888V31.0127L24.5826 31.2275C24.6303 31.3708 24.6542 31.5141 24.7257 31.6574C24.7497 31.7051 24.7735 31.7291 24.7974 31.7768C24.7974 31.8006 24.8214 31.8245 24.8214 31.8245C24.9644 32.111 25.2508 32.2783 25.5373 32.2783C25.6328 32.2783 25.7283 32.2543 25.8237 32.2066C25.9907 32.1112 26.134 31.9678 26.1818 31.7768C26.2295 31.5858 26.2295 31.3708 26.1341 31.1798C26.1341 31.156 26.1101 31.1559 26.1101 31.1321C26.0863 31.0844 26.0624 31.0367 26.0386 31.0127C25.9669 30.8694 25.8715 30.75 25.776 30.6306C25.7283 30.559 25.6806 30.5113 25.6329 30.4397V30.4157C25.3702 30.0097 25.1315 29.6516 25.0123 29.2933C24.9646 29.1262 25.0123 29.0308 25.0361 28.9114C25.0361 28.8875 25.0599 28.8875 25.0599 28.8637L24.9406 28.5771C26.2056 27.8369 27.2796 26.7861 28.0912 25.4967C28.5209 24.828 28.855 24.0878 29.0936 23.3476L29.38 23.3953C29.404 23.3953 29.404 23.3714 29.4277 23.3714C29.5232 23.3237 29.5949 23.2521 29.7381 23.2521H29.7858C30.1677 23.2999 30.5734 23.443 31.027 23.6103H31.0508C31.1224 23.6341 31.1939 23.6818 31.2656 23.7057C31.4088 23.7774 31.5282 23.8251 31.6952 23.873C31.7429 23.873 31.7906 23.8968 31.8384 23.8968C31.8623 23.8968 31.8861 23.8968 31.91 23.9207C31.9816 23.9445 32.0293 23.9445 32.101 23.9445C32.459 23.9445 32.7692 23.7058 32.8647 23.3954C32.8647 23.1089 32.6022 22.7267 32.1725 22.6075V22.6073ZM21.1217 21.4373L20.0715 21.9388L19.0214 21.4373L18.7589 20.315L19.4749 19.4077H20.6444L21.3604 20.315L21.1219 21.4373H21.1217ZM27.3513 18.954C27.5365 19.7436 27.5929 20.5579 27.5184 21.3655L23.8666 20.315C23.5325 20.2196 23.3416 19.8852 23.4131 19.5509C23.4369 19.4554 23.4848 19.3598 23.5563 19.2882L26.4444 16.6854C26.85 17.3541 27.1603 18.1183 27.3513 18.954ZM25.2987 15.2528L22.172 17.4735C21.9094 17.6406 21.5513 17.5928 21.3366 17.3302C21.2651 17.2585 21.2412 17.1629 21.2172 17.0675L21.0025 13.1752C22.628 13.3624 24.1422 14.0947 25.2987 15.2528ZM18.377 13.2945C18.6396 13.2467 18.8782 13.199 19.1407 13.1513L18.926 16.9718C18.9022 17.3061 18.6396 17.5926 18.2815 17.5926C18.1861 17.5926 18.0667 17.5688 17.995 17.5211L14.8207 15.2528C15.7993 14.2737 17.0166 13.6049 18.377 13.2945ZM13.675 16.6853L16.5152 19.2164C16.7778 19.4314 16.8017 19.8372 16.5869 20.0999C16.5152 20.1953 16.4199 20.267 16.3005 20.291L12.601 21.3655C12.4578 19.7418 12.8157 18.0942 13.675 16.6853ZM13.0305 23.1564L16.8257 22.5116C17.1359 22.4878 17.4223 22.7027 17.4939 23.0132C17.5177 23.1563 17.5177 23.2759 17.47 23.3953L16.0141 26.9053C14.6775 26.0457 13.6033 24.7323 13.0305 23.1564ZM21.7424 27.9083C21.1934 28.0277 20.6444 28.0993 20.0715 28.0993C19.2363 28.0993 18.4247 27.9561 17.6611 27.7173L19.5465 24.3026C19.7374 24.0877 20.0477 23.9922 20.3103 24.1355C20.4217 24.2038 20.519 24.293 20.5967 24.3981L22.4345 27.7173C22.2197 27.7889 21.981 27.8367 21.7422 27.9083H21.7424ZM26.3965 24.5892C25.7998 25.5443 25.0121 26.3084 24.1053 26.9053L22.6017 23.2996C22.53 23.0132 22.6493 22.7027 22.9358 22.5593C23.0311 22.5116 23.1505 22.4878 23.2699 22.4878L27.0887 23.1326C26.9455 23.6578 26.7068 24.1355 26.3965 24.5892Z" fill="white"/>
</g>
<defs>
<clipPath id="clip0_717_4013">
<rect width="37" height="36" fill="white" transform="translate(1.5 2)"/>
</clipPath>
</defs>
</svg>
