<svg width="25" height="25" viewBox="0 0 25 25" fill="none" xmlns="http://www.w3.org/2000/svg">
<path d="M23.2143 0H1.78013C0.797991 0 0 0.809152 0 1.80246V23.1975C0 24.1908 0.797991 25 1.78013 25H23.2143C24.1964 25 25 24.1908 25 23.1975V1.80246C25 0.809152 24.1964 0 23.2143 0ZM7.5558 21.4286H3.85045V9.49777H7.56138V21.4286H7.5558ZM5.70312 7.8683C4.51451 7.8683 3.55469 6.9029 3.55469 5.71987C3.55469 4.53683 4.51451 3.57143 5.70312 3.57143C6.88616 3.57143 7.85156 4.53683 7.85156 5.71987C7.85156 6.90848 6.89174 7.8683 5.70312 7.8683ZM21.4453 21.4286H17.74V15.625C17.74 14.2411 17.7121 12.4609 15.8147 12.4609C13.8839 12.4609 13.5882 13.9676 13.5882 15.5246V21.4286H9.88281V9.49777H13.4375V11.1272H13.4877C13.9844 10.1897 15.1953 9.20201 16.9978 9.20201C20.7478 9.20201 21.4453 11.6741 21.4453 14.8884V21.4286Z" fill="white"/>
</svg>
