<svg width="30" height="20" viewBox="0 0 30 20" fill="none" xmlns="http://www.w3.org/2000/svg">
<path d="M1.66667 20C1.19444 20 0.798889 19.84 0.48 19.52C0.16 19.2011 0 18.8056 0 18.3333C0 17.8611 0.16 17.4656 0.48 17.1467C0.798889 16.8267 1.19444 16.6667 1.66667 16.6667H28.3333C28.8056 16.6667 29.2011 16.8267 29.52 17.1467C29.84 17.4656 30 17.8611 30 18.3333C30 18.8056 29.84 19.2011 29.52 19.52C29.2011 19.84 28.8056 20 28.3333 20H1.66667ZM1.66667 11.6667C1.19444 11.6667 0.798889 11.5067 0.48 11.1867C0.16 10.8678 0 10.4722 0 10C0 9.52778 0.16 9.13167 0.48 8.81167C0.798889 8.49278 1.19444 8.33333 1.66667 8.33333H28.3333C28.8056 8.33333 29.2011 8.49278 29.52 8.81167C29.84 9.13167 30 9.52778 30 10C30 10.4722 29.84 10.8678 29.52 11.1867C29.2011 11.5067 28.8056 11.6667 28.3333 11.6667H1.66667ZM1.66667 3.33333C1.19444 3.33333 0.798889 3.17389 0.48 2.855C0.16 2.535 0 2.13889 0 1.66667C0 1.19444 0.16 0.798334 0.48 0.478334C0.798889 0.159445 1.19444 0 1.66667 0H28.3333C28.8056 0 29.2011 0.159445 29.52 0.478334C29.84 0.798334 30 1.19444 30 1.66667C30 2.13889 29.84 2.535 29.52 2.855C29.2011 3.17389 28.8056 3.33333 28.3333 3.33333H1.66667Z" fill="white"/>
</svg>
