<svg width="40" height="50" viewBox="0 0 40 50" fill="none" xmlns="http://www.w3.org/2000/svg">
<path d="M25.2547 23.1561L16.487 26.3998L8.85914 30.214L6.72514 30.8522C6.18166 31.4379 5.6118 32.0311 4.99546 32.6318C4.3195 33.2925 3.68993 33.8932 3.20607 34.3286C2.66931 34.8092 1.87404 35.7102 1.46981 36.2807C0.866707 37.1367 0.38957 38.0452 0.184113 38.7435C-0.18041 40.005 -0.00138885 41.2813 0.70107 42.4602C1.60235 43.9618 3.39835 45.4935 5.49246 46.5372C6.55951 47.0704 8.35544 47.7536 9.70734 48.1364C11.9539 48.7822 16.3014 49.4805 18.6937 49.5857C19.1774 49.6082 19.8269 49.6082 19.8534 49.5857C19.9065 49.548 20.2776 48.7447 20.7084 47.7461C22.1797 44.3448 23.24 41.1537 23.8165 38.4282C24.1611 36.7765 24.4328 34.5765 24.6116 31.9712C24.6581 31.2428 24.6779 28.8026 24.6382 27.9766C24.5785 26.6252 24.4724 25.529 24.3069 24.4553C24.2804 24.2976 24.2737 24.1549 24.287 24.1474C24.3134 24.1249 24.3929 24.0949 25.4732 23.7419L25.2546 23.1564V23.1562H25.2547V23.1561ZM23.2533 24.4852C23.3328 24.4852 23.5448 26.7902 23.5978 28.2469C23.6111 28.5547 23.6044 28.7574 23.5912 28.7574C23.5382 28.7574 22.4712 28.0442 21.7092 27.5036C21.0465 27.0306 19.7873 26.0845 19.5885 25.9043C19.5221 25.8518 19.5287 25.8443 20.0723 25.634C20.9933 25.281 23.1804 24.4852 23.2533 24.4852ZM18.7866 26.1521C18.8463 26.1521 18.9986 26.2496 19.3631 26.5049C20.7283 27.4735 22.5839 28.6448 23.3792 29.0353C23.6243 29.1554 23.6508 29.1103 23.0876 29.5459C21.8814 30.4769 20.377 31.3929 18.5346 32.3164C18.2099 32.4816 17.9383 32.6092 17.9317 32.6092C17.9185 32.6092 17.9581 32.4216 18.0111 32.1963C18.4551 30.3266 18.707 28.4345 18.7203 26.9178C18.7269 26.167 18.7269 26.167 18.7866 26.1446C18.7733 26.1521 18.7799 26.1521 18.7866 26.1521ZM17.8654 26.55C17.9051 26.5949 17.8786 28.2769 17.8256 28.7349C17.7063 29.8311 17.5207 30.8522 17.216 32.0011C17.1431 32.2787 17.0767 32.5116 17.0636 32.5266C17.0369 32.5641 16.129 31.558 15.8308 31.1676C15.3139 30.4918 14.9097 29.816 14.6115 29.1553C14.459 28.8174 14.2205 28.1568 14.2403 28.1342C14.3464 28.0516 17.8389 26.52 17.8654 26.55ZM13.5312 28.4796C13.5378 28.4796 13.5444 28.4796 13.5511 28.4871C13.5643 28.5021 13.6108 28.6223 13.6506 28.7574C13.8626 29.4106 14.3396 30.3717 14.7506 30.9874C15.2013 31.6632 15.7912 32.3839 16.2814 32.8569C16.4406 33.0071 16.5863 33.1497 16.6061 33.1723C16.646 33.2174 16.6592 33.2098 15.5789 33.6754C14.3265 34.2159 12.9612 34.7565 11.3972 35.3271C11.0236 35.4636 10.6503 35.6013 10.2774 35.7401C10.2176 35.7627 10.2376 35.7251 10.4099 35.4173C11.1852 34.0432 12.3648 31.3478 13.0276 29.4406C13.1402 29.1103 13.2529 28.7799 13.2728 28.7048C13.2993 28.5997 13.3324 28.5622 13.4185 28.5096C13.4649 28.4947 13.5114 28.4796 13.5312 28.4796ZM12.2059 29.1028C12.2257 29.1179 11.8877 29.9212 11.5564 30.657C10.9135 32.0761 10.211 33.4727 9.26999 35.1695C9.11095 35.4623 8.95858 35.7327 8.93865 35.7627C8.90556 35.8153 8.89223 35.8002 8.78622 35.5675C8.5609 35.0644 8.37528 34.4187 8.2759 33.8255C8.17645 33.2398 8.19638 32.2187 8.30908 31.5881C8.39514 31.1226 8.3886 31.1301 8.5874 31.0174C9.43566 30.5294 12.1794 29.0728 12.2059 29.1028ZM23.6377 29.6284V29.9438C23.6377 31.6181 23.4786 33.9157 23.2466 35.5901C23.2068 35.8829 23.1736 36.1231 23.1671 36.1307C23.1671 36.1307 22.9749 36.0707 22.7496 35.9955C21.7555 35.6425 20.6753 35.1245 19.7011 34.5164C19.0581 34.1184 18.1238 33.4651 18.1503 33.4351C18.1569 33.4276 18.4353 33.2624 18.7599 33.0672C20.059 32.3014 21.3048 31.4755 22.3851 30.6571C22.7893 30.3492 23.3989 29.8537 23.5316 29.7185L23.6377 29.6284ZM7.20228 31.8508C7.22878 31.8508 7.22214 31.9108 7.18239 32.1811C7.15586 32.3764 7.12276 32.7368 7.10959 32.9845C7.05645 34.0807 7.2156 34.8917 7.69274 36.0029C7.82528 36.3107 7.93139 36.566 7.92466 36.5735C7.87824 36.6186 3.49116 38.0753 2.11262 38.5032C1.70177 38.6308 1.34397 38.7434 1.31732 38.7509C1.27102 38.766 1.26436 38.7585 1.28422 38.6307C1.43663 37.5271 2.1789 36.0855 3.2127 34.8691C3.90195 34.0582 4.45204 33.5852 5.39308 32.9769C6.06904 32.5415 7.1095 31.8884 7.18902 31.8583C7.18908 31.8508 7.19568 31.8508 7.20228 31.8508ZM17.5407 33.9456C17.5473 33.9381 17.7063 34.0358 17.8985 34.1634C19.3167 35.0944 21.2916 35.9579 22.9748 36.4009L23.1273 36.4385L22.9152 36.5735C22.0338 37.1292 19.1378 38.4956 16.1755 39.7496C15.7446 39.9297 15.3206 40.11 15.2409 40.1475C15.1614 40.185 15.0885 40.2076 15.0885 40.2001C15.0885 40.1925 15.2079 39.9297 15.3602 39.6069C16.1886 37.8499 17.0237 35.7101 17.4478 34.2234C17.5009 34.0808 17.5339 33.9532 17.5407 33.9456ZM16.487 34.3361C16.4937 34.3437 16.4406 34.5013 16.3743 34.6815C15.7978 36.2657 15.0422 37.9927 14.0746 39.9298C13.8295 40.4254 13.624 40.8234 13.6173 40.8234C13.6108 40.8234 13.4119 40.6882 13.1733 40.523C11.7683 39.5469 10.5224 38.3456 9.70737 37.1818L9.58803 37.0166L10.191 36.8289C12.3515 36.1607 14.1872 35.4399 16.0097 34.5539C16.2682 34.4338 16.4804 34.3361 16.487 34.3361ZM23.0346 36.9265C23.0346 36.9265 23.0412 36.934 23.0346 36.9265C23.0412 37.0992 22.7032 38.6459 22.4248 39.7645C22.1929 40.7031 21.994 41.439 21.6296 42.7378C21.4705 43.3086 21.3315 43.7815 21.3247 43.7815C21.3181 43.7815 21.2784 43.774 21.2386 43.7591C19.2704 43.3535 17.5075 42.7904 15.8507 42.0396C15.3868 41.8293 14.7241 41.4914 14.6844 41.4539C14.6712 41.4388 15.0688 41.2287 15.5724 40.9809C18.5878 39.4867 21.7158 37.7898 22.7893 37.0616C22.9152 36.9715 23.0147 36.9265 23.0346 36.9265ZM7.91806 37.5122C7.93133 37.5271 7.08967 38.9012 5.90998 40.7707C5.49913 41.424 5.02199 42.1898 4.84309 42.4751C4.66413 42.7604 4.39245 43.211 4.24001 43.4813L3.96155 43.9693L3.66331 43.684C3.31205 43.3536 2.70243 42.6478 2.43072 42.2574C1.86074 41.4541 1.47645 40.6056 1.32401 39.8323C1.25109 39.4719 1.25109 39.2916 1.31729 39.2692C1.41667 39.2392 3.18614 38.7661 4.84303 38.3305C5.7642 38.0903 6.8311 37.805 7.21548 37.6999C7.5999 37.5946 7.91146 37.5122 7.91806 37.5122ZM8.7663 37.8801L8.97829 38.1503C9.93272 39.3592 10.9069 40.2528 12.0865 41.0335C12.2986 41.1688 12.4576 41.2888 12.4443 41.2965C12.398 41.334 8.34875 42.9631 6.4733 43.699C5.41964 44.1194 4.55142 44.4573 4.54488 44.4573C4.53828 44.4573 4.4786 44.4123 4.41222 44.3597L4.293 44.2621L4.48517 43.9468C5.10808 42.9256 5.89021 41.8069 7.59336 39.4793L8.7663 37.8801ZM14.0548 42.1673C14.0614 42.1598 14.353 42.2798 14.7108 42.4302C15.5724 42.798 16.2549 43.0307 17.1695 43.2936C18.2962 43.6165 19.9264 43.9318 20.8874 44.0219C21.0332 44.0368 21.1127 44.0519 21.0862 44.0745C21.0397 44.1045 20.0657 44.4724 19.3499 44.7277C18.2099 45.1331 14.7307 46.2969 11.8944 47.2205C11.3708 47.3931 10.9201 47.5358 10.8936 47.5433C10.8274 47.5583 10.6087 47.4907 10.6087 47.4606C10.6087 47.4457 10.7677 47.213 10.9599 46.9577C11.9142 45.6662 12.8619 44.2246 13.6506 42.8581C13.8692 42.4826 14.0548 42.1748 14.0548 42.1673ZM12.8884 42.2049C12.895 42.2124 12.4245 43.0683 11.6028 44.5399C11.2515 45.1631 10.8605 45.8688 10.7213 46.1166C10.5887 46.3569 10.3899 46.7324 10.2773 46.9426L10.0851 47.3255L9.98571 47.2955C9.74707 47.2204 8.07044 46.5521 7.6264 46.3494C7.07631 46.1016 6.50639 45.8013 6.08222 45.546C5.55212 45.2231 4.88945 44.7426 4.94241 44.7276C4.95564 44.7202 5.86359 44.4422 6.957 44.1045C9.85974 43.2108 11.4701 42.6928 12.5239 42.3174C12.7161 42.2499 12.8818 42.1973 12.8884 42.2049ZM21.1392 44.3972H21.1458C21.1723 44.4724 20.0988 47.8511 19.7076 48.9172C19.6216 49.1575 19.5885 49.2177 19.5421 49.21C19.4294 49.2026 17.8721 48.9548 16.9243 48.7971C15.2742 48.5118 12.504 47.9636 11.8082 47.7835L11.6492 47.746L12.6365 47.4906C14.7572 46.95 15.7778 46.6572 16.8116 46.2968C18.1172 45.8463 19.4096 45.2831 20.715 44.5924C20.9205 44.4873 21.0928 44.4047 21.1392 44.3972Z" fill="url(#paint0_linear_6_87)"/>
<path d="M16.2152 0.000384567C16.0694 -0.022017 13.7167 0.939035 12.1992 1.63722C10.1513 2.58339 8.56089 3.48444 7.58003 4.26513C7.21559 4.55808 6.75823 5.07609 6.68543 5.27878C6.65894 5.35388 6.64561 5.44397 6.64561 5.53406L7.5337 6.48763L9.6477 7.25347L14.6777 8.27463L20.43 9.3934L20.4897 8.83028C20.4699 8.83028 20.4566 8.8228 20.4369 8.8228L19.6812 8.68759L19.5288 8.37979C18.7468 6.81801 17.8853 4.88085 17.3817 3.57439C16.9907 2.56074 16.6195 1.38956 16.4141 0.548582C16.3014 0.0380203 16.2882 0.00800172 16.2154 0.000522986V0.000349698H16.2152V0.000384567ZM16.1091 0.383427H16.1159C16.1224 0.390837 16.1489 0.601211 16.1755 0.84884C16.288 1.90016 16.4936 2.91363 16.8183 4.00989C17.0635 4.83584 17.0635 4.79083 16.7785 4.69315C16.1026 4.48299 13.074 3.88981 10.8804 3.54444C10.5292 3.49184 10.2309 3.43932 10.2309 3.43184C10.2044 3.40182 11.8148 2.44818 12.5239 2.07286C13.4318 1.59973 15.9236 0.420925 16.1091 0.383427ZM9.72053 3.74713L9.9791 3.84463C11.384 4.38531 14.9161 5.15119 16.8646 5.33137C17.0833 5.35391 17.2689 5.37649 17.2754 5.37649C17.282 5.38396 17.0966 5.4966 16.8579 5.62418C15.917 6.15729 14.8831 6.81053 14.1674 7.31362C13.9554 7.46371 13.7631 7.58392 13.7366 7.58392C13.7101 7.58392 13.571 7.55387 13.4252 7.53133L13.1601 7.48622L12.4975 6.75036C11.3311 5.46651 10.4165 4.47544 10.0652 4.09994L9.72053 3.74713ZM9.45554 3.97983L10.39 5.30135C10.9002 6.02966 11.4171 6.74291 11.5299 6.90052C11.6424 7.0583 11.7353 7.18599 11.7287 7.19347C11.7021 7.21598 10.3768 6.9231 9.67423 6.74298C8.95188 6.55522 8.65367 6.46513 8.20966 6.30752L7.84514 6.17231V6.06713C7.85174 5.56404 8.41512 4.81326 9.36939 4.04749L9.45554 3.97983ZM17.3948 5.78186C17.4214 5.78186 17.4544 5.84941 17.5339 6.05213C17.7593 6.61522 18.4619 8.13198 18.634 8.42476C18.6872 8.52247 18.7798 8.52995 17.8455 8.35725C15.5989 7.94418 14.8765 7.80919 14.8765 7.79416C14.8765 7.78668 14.9428 7.73409 15.0289 7.68149C15.7248 7.2461 16.4273 6.69042 17.0503 6.09725C17.2027 5.95456 17.3419 5.81943 17.3683 5.79685C17.3749 5.78186 17.3882 5.77438 17.3948 5.78186Z" fill="url(#paint1_linear_6_87)"/>
<path d="M6.73172 5.17365C6.73172 5.17365 6.58601 5.43655 6.72515 5.827C6.81139 6.06719 7.06317 6.35997 7.34809 6.66036C7.34809 6.66036 10.2972 9.91894 10.655 10.3845C12.2853 12.5168 12.9944 14.6192 13.0607 17.5174C13.1004 19.3795 12.7889 21.0163 12.0136 22.9159C10.6351 26.3248 7.72575 30.0865 3.2392 34.2611L3.89539 34.0133C4.3195 33.6528 4.89608 33.27 6.24798 32.4291C9.36931 30.4918 12.8817 28.7123 17.1894 26.8803C23.3923 24.2373 33.5916 21.1438 39.3968 20.1378L40 20.0326L39.9072 19.8675C39.3771 18.9364 39.0125 18.3583 38.575 17.7426C37.3027 15.9556 35.7587 14.5066 33.8699 13.3052C31.272 11.661 27.9119 10.3771 23.6574 9.42348C22.8556 9.24319 21.0927 8.89785 19.6613 8.65009C16.626 8.11712 14.6644 7.74914 12.504 7.32867C11.7287 7.17844 10.5688 6.95324 9.80006 6.76558C9.40244 6.66788 8.64039 6.46519 8.04394 6.23245C7.56681 6.02211 6.87752 5.81187 6.73172 5.17365ZM8.44163 7.05081C8.44817 7.04341 8.55418 7.08831 8.69344 7.14091C8.94526 7.23841 9.26996 7.35107 9.65444 7.47129C9.9453 7.56193 10.2369 7.64952 10.5292 7.73405C10.9268 7.84661 11.2581 7.95176 11.2647 7.95176C11.3112 8.00435 11.9806 10.4294 12.2059 11.3604C12.2919 11.7134 12.3583 12.0137 12.3517 12.0137C12.3449 12.0213 12.2721 11.8936 12.186 11.7209C11.4106 10.1742 10.1845 8.60494 8.7663 7.34349C8.58083 7.19346 8.44163 7.05829 8.44163 7.05081ZM11.7022 8.07194C11.7353 8.07194 11.8811 8.09448 12.06 8.13949C13.1866 8.42479 15.2079 8.86029 16.5002 9.10809C16.7189 9.14559 16.8912 9.19074 16.8912 9.20566C16.8912 9.22076 16.8116 9.27321 16.7122 9.33335C16.4936 9.46094 15.6121 10.054 15.3206 10.2793C14.5849 10.8349 13.9223 11.4356 13.4451 11.9762C13.2529 12.194 13.0872 12.3741 13.0872 12.3741C13.0872 12.3741 13.0475 12.2466 13.0142 12.0888C12.7758 11.0451 12.2787 9.49837 11.828 8.40973C11.7551 8.23709 11.6954 8.07938 11.6954 8.06443C11.6954 8.07942 11.6954 8.07194 11.7022 8.07194ZM17.4412 9.31081C17.481 9.32577 17.5473 9.58108 17.6798 10.1442C17.925 11.2329 18.0377 12.4493 17.9979 13.583C17.9846 13.8984 17.9714 14.1912 17.9581 14.2288L17.9383 14.3038L17.5937 14.1762C16.8845 13.9209 15.7315 13.5379 14.7441 13.2226C14.1807 13.0499 13.7235 12.8923 13.7235 12.8773C13.7235 12.8322 14.5453 11.9012 14.8965 11.5483C15.5657 10.88 17.3815 9.28824 17.4412 9.31081ZM17.8985 9.38581C17.9184 9.36341 20.6422 9.89637 21.8815 10.1667C22.8027 10.3694 24.1413 10.6848 24.2208 10.7224C24.2606 10.7373 24.1214 10.8274 23.6773 11.0527C21.9278 11.9462 20.6288 12.7495 19.3367 13.7257C18.9987 13.981 18.7137 14.1912 18.7071 14.1912C18.7005 14.1912 18.6938 13.9735 18.6938 13.7107C18.6938 12.2841 18.442 10.8425 17.978 9.62616C17.9316 9.50602 17.8919 9.39342 17.8985 9.38581ZM24.9431 10.9626C24.9631 10.9851 24.8769 11.5934 24.7973 11.9537C24.5588 13.0725 23.916 14.7319 23.1274 16.2936C22.9881 16.5714 22.8623 16.7966 22.8489 16.8041C22.8358 16.8116 22.6568 16.6989 22.4513 16.5638C21.6826 16.0532 20.8079 15.5727 19.8535 15.1222C19.5885 14.9946 19.3565 14.8894 19.3499 14.8745C19.3034 14.8294 21.4374 13.2301 22.564 12.4643C23.4587 11.8486 24.9166 10.9326 24.9431 10.9626ZM25.4468 11.0527C25.5065 11.0527 26.7126 11.4282 27.3421 11.6384C28.8995 12.164 30.6888 12.9073 31.8552 13.5079L32.3389 13.7558L32.001 13.8458C29.1514 14.5891 26.7126 15.4452 24.3599 16.5263C24.1677 16.6164 23.9954 16.6915 23.9823 16.6915C23.969 16.6915 24.0353 16.5189 24.1214 16.3086C24.8305 14.6042 25.2878 12.8247 25.4003 11.3079C25.4071 11.1653 25.4268 11.0527 25.4468 11.0527ZM13.4385 14.1762C13.4583 14.1536 14.3795 14.4015 14.8766 14.559C15.632 14.7994 17.2357 15.4075 17.2357 15.4526C17.2357 15.4601 17.0569 15.6328 16.8449 15.8431C15.9767 16.6615 15.1416 17.5248 14.1409 18.6211C13.8426 18.944 13.5909 19.2068 13.5777 19.2068C13.5644 19.2068 13.5578 19.1617 13.5644 19.1016C13.7168 17.8402 13.6837 16.2184 13.4716 14.5741C13.4517 14.3638 13.4318 14.1837 13.4385 14.1762ZM32.7964 14.1988C32.8095 14.2137 32.3722 14.9946 32.0938 15.4375C31.6963 16.0832 31.1129 16.9393 29.7941 18.8164C29.0984 19.8074 28.3163 20.9262 28.0579 21.3016C27.7927 21.677 27.5741 21.9923 27.5674 21.9923C27.5608 21.9923 27.4748 21.8572 27.3819 21.6921C26.6397 20.4306 25.7516 19.3269 24.6979 18.3358C24.4991 18.148 24.2805 17.9453 24.2076 17.8852C24.1346 17.8252 24.0749 17.7651 24.0749 17.7577C24.0749 17.7352 25.2015 17.187 26.0565 16.7966C27.5543 16.1058 29.5952 15.2799 31.1262 14.7468C31.9281 14.4615 32.783 14.1837 32.7964 14.1988ZM33.3066 14.3488C33.333 14.3414 33.4922 14.4315 33.6844 14.559C35.2948 15.6027 36.8719 16.9467 38.118 18.3283C38.4692 18.7188 39.3373 19.7399 39.324 19.7474C39.324 19.7474 39.0191 19.7774 38.6613 19.8074C35.8713 20.0477 32.2994 20.7159 28.8664 21.6544C28.6345 21.7144 28.4291 21.767 28.4158 21.767C28.4027 21.767 28.661 21.4742 28.9858 21.1214C31.0004 18.9214 31.9217 17.5324 33.0084 15.0546C33.1608 14.6868 33.2934 14.3714 33.3066 14.3488C33.3 14.3488 33.3 14.3488 33.3066 14.3488ZM18.5479 16.0609C18.6408 16.0833 19.5023 16.5414 20.1517 16.9092C20.7482 17.247 21.6429 17.7877 21.6893 17.8327C21.6959 17.8402 21.3777 18.0279 20.9869 18.2457C19.7409 18.9515 18.6739 19.6196 17.5605 20.3855C17.2424 20.6033 16.9774 20.7836 16.9708 20.7836C16.9442 20.7836 16.9508 20.7534 17.1298 20.3855C17.7263 19.1542 18.2033 17.6826 18.4751 16.2484C18.5016 16.1358 18.5281 16.0609 18.5479 16.0609ZM17.6864 16.241C17.7063 16.2635 17.481 17.187 17.3419 17.6901C17.0701 18.6436 16.6128 19.8374 16.1689 20.7385C16.0627 20.9486 15.9037 21.2565 15.8176 21.4291L15.6519 21.7295L15.2808 21.3241C14.8501 20.8511 14.4988 20.5582 14.0482 20.2954C13.8692 20.1904 13.7301 20.1002 13.7301 20.0852C13.7301 20.0252 14.8633 18.8614 15.7314 18.0205C16.3544 17.4123 17.6666 16.2185 17.6864 16.241ZM22.9551 18.6962L23.2799 18.9364C24.0219 19.4846 24.8967 20.2129 25.5662 20.851C25.9438 21.2039 26.6728 21.9473 26.8187 22.1275L26.8981 22.2252L26.3614 22.3978C23.3261 23.3513 20.9801 24.1998 18.2431 25.3411C17.9383 25.4687 17.6798 25.5738 17.6599 25.5738C17.6202 25.5738 17.587 25.6113 18.2697 24.898C20.0193 23.0736 21.5699 21.0613 22.7231 19.1016L22.9551 18.6962ZM21.57 19.0867C21.5832 19.1016 20.6753 20.5507 20.1318 21.3691C19.4824 22.3452 18.3292 23.982 17.534 25.0481C17.2027 25.4912 16.9178 25.8591 16.9045 25.8666C16.8845 25.8741 16.8779 25.7615 16.8779 25.5888C16.8779 24.6802 16.6725 23.7116 16.3146 22.8858C16.1622 22.5404 16.1357 22.4578 16.1689 22.4203C16.2948 22.2926 18.2233 21.0462 19.4426 20.303C20.2644 19.8074 21.5499 19.0716 21.57 19.0867ZM13.1932 21.4142C13.2131 21.4142 13.3656 21.5043 13.5379 21.6095C13.962 21.8722 14.3398 22.165 14.6777 22.4804C14.6909 22.4954 14.5187 22.6531 14.2934 22.8407C13.6638 23.3513 12.7095 24.1698 12.1529 24.6729C11.5696 25.1984 11.5498 25.2134 11.616 25.1008C12.0535 24.3425 12.272 23.9145 12.5041 23.3664C12.7095 22.8784 12.9149 22.3003 13.0607 21.7972C13.1137 21.5794 13.18 21.4142 13.1932 21.4142ZM15.4266 23.3964C15.4597 23.389 15.4996 23.4565 15.6784 23.7569C16.0561 24.3949 16.3478 25.251 16.4208 25.9417L16.4339 26.092L15.5261 26.4899C13.9023 27.2032 12.4047 27.909 11.3906 28.4345C11.1057 28.5847 10.6087 28.855 10.284 29.0353C9.95922 29.2229 9.69414 29.3656 9.69414 29.3581C9.69414 29.3506 9.89953 29.1779 10.1514 28.9676C12.133 27.3384 13.8494 25.5513 15.135 23.7644C15.2742 23.5766 15.4002 23.4039 15.4133 23.3964L15.4266 23.3964ZM14.3994 23.6818C14.426 23.7118 13.6705 24.6803 13.1536 25.2734C11.8745 26.7527 10.6087 27.909 9.03804 29.0353C8.83924 29.1779 8.66035 29.3055 8.64042 29.3206C8.594 29.3506 8.65362 29.2755 9.34288 28.427C9.78032 27.8939 10.1116 27.4434 10.4894 26.8879C10.7412 26.52 10.7876 26.4674 11.1522 26.1745C12.1264 25.3786 14.3729 23.6517 14.3994 23.6818Z" fill="url(#paint2_radial_6_87)"/>
<defs>
<linearGradient id="paint0_linear_6_87" x1="6.5963" y1="44.6959" x2="9.95899" y2="42.9421" gradientUnits="userSpaceOnUse">
<stop stop-color="#909CA9"/>
<stop offset="1" stop-color="#EDEDEE"/>
</linearGradient>
<linearGradient id="paint1_linear_6_87" x1="6.66887" y1="4.6822" x2="9.21986" y2="4.6822" gradientUnits="userSpaceOnUse">
<stop stop-color="#939FAB"/>
<stop offset="1" stop-color="#DCDEE1"/>
</linearGradient>
<radialGradient id="paint2_radial_6_87" cx="0" cy="0" r="1" gradientUnits="userSpaceOnUse" gradientTransform="translate(19.5412 17.9375) rotate(-170.342) scale(3.29921 7.43113)">
<stop stop-color="#EE352C"/>
<stop offset="1" stop-color="#A91D22"/>
</radialGradient>
</defs>
</svg>
