<svg width="40" height="40" viewBox="0 0 40 40" fill="none" xmlns="http://www.w3.org/2000/svg">
<g clip-path="url(#clip0_717_4024)">
<path d="M12.3053 24.1568L13.46 27.918C13.7194 28.772 13.8276 29.3681 13.7843 29.7079C14.4158 28.0099 14.8571 26.1595 15.1081 24.1568H16.4965C15.8995 27.4173 15.1121 29.7867 14.1347 31.2647C13.3732 32.4037 12.5389 32.9732 11.6305 32.9732C11.3882 32.9732 11.0896 32.8997 10.7353 32.7539V31.9679C10.9084 31.9934 11.1115 32.007 11.3451 32.007C11.7689 32.007 12.1105 31.8891 12.3704 31.6537C12.6816 31.367 12.8373 31.0447 12.8373 30.6875C12.8373 30.4436 12.7158 29.943 12.474 29.1858L10.8652 24.1568H12.3053ZM3.46804 21.845L5.58298 28.3231H5.59605L7.72398 21.845H9.46253C9.84322 25.0577 10.0681 27.9972 10.1371 30.6616H8.67132C8.61975 28.1709 8.4769 25.8288 8.24329 23.6349H8.23052L5.99848 30.6616H4.88223L2.66369 23.6349H2.65063C2.48604 25.7419 2.38244 28.084 2.33925 30.6616H1.00261C1.08899 27.5267 1.30516 24.5881 1.65112 21.845H3.46804Z" fill="#00758F"/>
<path d="M27.161 21.7142C29.436 21.7142 30.5735 23.1733 30.5735 26.0902C30.5735 27.6752 30.2314 28.8725 29.5479 29.6813C29.4247 29.8291 29.2885 29.9568 29.1452 30.0751L30.7551 30.8743L30.7536 30.8742L30.1819 31.8652L28.0853 30.6371C27.7378 30.7404 27.3554 30.792 26.9387 30.792C25.8217 30.792 24.9873 30.4652 24.4356 29.8124C23.8301 29.0902 23.5274 27.9532 23.5274 26.4035C23.5274 24.8274 23.8689 23.6347 24.5527 22.8248C25.1755 22.084 26.045 21.7142 27.161 21.7142ZM20.1943 21.727C21.0074 21.727 21.7467 21.9455 22.4127 22.3808L22.0744 23.1374C21.5046 22.8943 20.9427 22.7722 20.3887 22.7722C19.9391 22.7722 19.5927 22.8808 19.3513 23.0994C19.1085 23.316 18.9583 23.5948 18.9583 23.9346C18.9583 24.4569 19.3289 24.9098 20.0131 25.2924C20.2373 25.4154 20.4607 25.5398 20.6833 25.6657L20.7344 25.6945L20.76 25.709L20.8111 25.7378L20.8366 25.7523L20.8877 25.7812C21.4057 26.0743 21.8931 26.3541 21.8931 26.3541C22.5773 26.8417 22.9183 27.3616 22.9183 28.2178C22.9183 28.9655 22.6454 29.5793 22.1013 30.0596C21.5568 30.5377 20.8253 30.7775 19.9093 30.7775C19.0526 30.7775 18.2223 30.5015 17.418 29.9543L17.7942 29.1969C18.4864 29.5452 19.1127 29.7192 19.6751 29.7192C20.2026 29.7192 20.6155 29.6009 20.9142 29.3674C21.2123 29.1323 21.3909 28.8042 21.3909 28.3883C21.3909 27.8648 21.0282 27.4173 20.3627 27.0419C20.1544 26.9264 19.9468 26.8097 19.7397 26.692L19.6888 26.663C19.5951 26.6099 19.5008 26.5561 19.4084 26.5034L19.3583 26.4748C18.909 26.2182 18.5205 25.9941 18.5205 25.9941C17.8553 25.5056 17.5217 24.9815 17.5217 24.1179C17.5217 23.4037 17.7705 22.8264 18.2672 22.3872C18.7652 21.9471 19.4076 21.727 20.1943 21.727ZM33.2472 21.845V29.5771H36.0106V30.6616H31.8457V21.845H33.2472ZM37.5461 29.5804V29.7637H37.2423V30.6607H37.01V29.7637H36.6944V29.5804H37.5462H37.5461ZM38.1071 29.5804L38.3988 30.3168L38.6668 29.5804H38.9961V30.6607H38.7771V29.8386L38.4721 30.6607H38.3143L38.0088 29.8386H37.9971V30.6607H37.7899V29.5804H38.1072H38.1071ZM27.0179 22.7985C25.6773 22.7985 25.0066 23.9092 25.0066 26.1293C25.0066 27.401 25.1843 28.3231 25.5391 28.8979C25.8677 29.4298 26.3823 29.6952 27.0831 29.6952C28.4237 29.6952 29.0943 28.5758 29.0943 26.338C29.0943 25.0842 28.9166 24.1699 28.5623 23.5949C28.2333 23.0641 27.7189 22.7985 27.018 22.7985H27.0179Z" fill="#F29111"/>
<path d="M23.504 7.5463C23.9487 6.44923 25.5038 7.28004 26.1072 7.66326C26.2551 7.75914 26.4248 7.9617 26.5943 8.03657C26.8589 8.047 27.1232 8.06779 27.3882 8.07889C27.8853 8.19615 28.3509 8.29195 28.7425 8.5159C30.5627 9.59203 31.7476 10.6886 32.8381 12.5C33.0711 12.8837 33.1875 13.2989 33.3779 13.714C33.6421 14.3329 33.9389 14.9825 34.2455 15.5677C34.3828 15.8451 34.489 16.1536 34.6797 16.3879C34.7541 16.4951 34.9655 16.5267 35.0919 16.5906C35.4413 16.7722 35.8645 16.91 36.1931 17.1231C36.8068 17.5072 37.4001 17.9649 37.9394 18.4335C38.1404 18.6144 38.2774 18.8705 38.469 19.0618V19.1583C38.299 19.2107 38.1295 19.2643 37.96 19.3073C37.5896 19.4028 37.2615 19.3812 36.9022 19.4768C36.6802 19.5415 36.4045 19.6268 36.1716 19.6484L36.1931 19.6702C36.3301 20.0632 37.0713 20.3828 37.4103 20.6178C37.822 20.9161 38.2035 21.2779 38.5106 21.6934C38.6166 21.7994 38.7227 21.8958 38.8282 22.0016C38.902 22.1087 38.9228 22.2473 38.9974 22.3428V22.3751C38.9147 22.3458 38.8553 22.2899 38.799 22.2315L38.7654 22.1963C38.7317 22.1613 38.6978 22.1269 38.6592 22.0985C38.4256 21.9383 38.1936 21.7467 37.96 21.5978C37.5584 21.3419 37.0925 21.1935 36.6802 20.9367C36.447 20.7876 36.2248 20.6178 36.0025 20.4472C35.801 20.2977 35.5791 20.0106 35.4525 19.7975C35.378 19.6798 35.3677 19.5415 35.2825 19.4563C35.2977 19.3141 35.4275 19.2719 35.5585 19.2371L35.5886 19.2292C35.6338 19.2174 35.6781 19.2056 35.7166 19.1901C36.2668 18.9555 36.9228 18.8705 37.7698 18.8918C37.7379 18.6782 37.2086 18.4122 37.0396 18.2844C36.7005 18.039 36.3414 17.7829 35.9816 17.5596C35.791 17.4426 35.4625 17.3572 35.2513 17.2617C34.9655 17.1444 34.3304 17.0272 34.172 16.8039C33.903 16.4518 33.7098 16.0318 33.5222 15.6076L33.4711 15.4919C33.4541 15.4533 33.437 15.4147 33.4199 15.3762C33.1982 14.8653 32.9227 14.3327 32.7004 13.8097C32.5842 13.5545 32.5309 13.3306 32.4036 13.0859C31.6313 11.5841 30.4883 10.3268 29.1024 9.44258C28.647 9.15487 28.1392 8.88861 27.5786 8.70766C27.261 8.61133 26.8797 8.6646 26.5412 8.59069H26.3184C26.1283 8.5369 25.9696 8.33457 25.8212 8.22788C25.4936 8.00454 25.1655 7.85457 24.7736 7.69522C24.6363 7.6313 24.2443 7.48245 24.1075 7.59964C24.0227 7.62102 23.9797 7.65313 23.9589 7.7385C23.8746 7.8659 23.9487 8.0578 24.0012 8.17529C24.1601 8.51575 24.3822 8.71809 24.5837 9.0058C24.763 9.26096 24.9857 9.54867 25.1128 9.8261C25.3871 10.4225 25.5148 11.0832 25.769 11.6795C25.8632 11.9037 26.0123 12.1589 26.1495 12.3611C26.2658 12.5217 26.4772 12.6378 26.5412 12.841C26.6687 13.0541 26.3503 13.7571 26.2766 13.9804C26.001 14.854 26.0544 16.0684 26.3719 16.8257L26.3888 16.8656L26.4057 16.9061C26.5216 17.1834 26.6457 17.4821 26.9539 17.5597C26.9751 17.5385 26.9539 17.5496 26.996 17.5385C27.0705 16.9523 27.0915 16.3879 27.2928 15.9292C27.4091 15.6425 27.6413 15.4398 27.8004 15.2057C27.9066 15.2695 27.9066 15.4618 27.9698 15.589C28.1075 15.919 28.2554 16.2809 28.4252 16.6119C28.7737 17.2935 29.1658 17.9544 29.6101 18.5507C29.7589 18.7637 29.97 18.9981 30.1604 19.19C30.2453 19.2643 30.3402 19.3072 30.404 19.4027H30.4248V19.4349C30.1073 19.3174 29.906 18.9877 29.6528 18.7952C29.1761 18.4334 28.6052 17.89 28.2766 17.3686C28.1392 17.0692 27.9906 16.7823 27.8425 16.4845V16.463C27.7792 16.548 27.8004 16.6325 27.7688 16.7612C27.6313 17.2935 27.7371 17.9008 27.261 18.0922C26.7212 18.3165 26.3185 17.7304 26.1495 17.4641C25.6096 16.5801 25.4617 15.0888 25.8425 13.8849C25.9271 13.6185 25.9386 13.2989 26.0862 13.0861C26.0543 12.8937 25.9066 12.8411 25.8212 12.7233C25.6731 12.5218 25.5463 12.2872 25.4303 12.0634C25.2075 11.6264 25.049 11.1043 24.8799 10.6356C24.8055 10.4442 24.7842 10.2521 24.7101 10.0709C24.5837 9.79437 24.3506 9.51693 24.1708 9.27228C23.9273 8.92065 23.2181 8.23913 23.504 7.5463ZM26.9749 9.63337C27.0032 9.66183 27.0373 9.68672 27.0726 9.71123L27.1152 9.74058C27.172 9.78006 27.227 9.82163 27.2607 9.87825C27.3141 9.9532 27.324 10.0272 27.388 10.1023C27.388 10.3583 27.3141 10.5285 27.1649 10.6346C27.1649 10.6346 27.1547 10.6458 27.1442 10.6562C27.0596 10.4856 26.9855 10.3158 26.9003 10.1453C26.7954 9.99641 26.647 9.87833 26.5615 9.70825H26.541V9.68687C26.6687 9.6552 26.7954 9.63337 26.9749 9.63337Z" fill="#00758F"/>
</g>
<defs>
<clipPath id="clip0_717_4024">
<rect width="38" height="26" fill="white" transform="translate(1 7)"/>
</clipPath>
</defs>
</svg>
