<svg width="40" height="40" viewBox="0 0 40 40" fill="none" xmlns="http://www.w3.org/2000/svg">
<g clip-path="url(#clip0_6_90)">
<path d="M15.69 35.045C14.6633 35.64 14.4683 35.71 13.5033 36.0517C13.27 36.1317 12.9167 36.2733 13.6367 36.6867L18.47 39.5833C18.9317 39.855 19.465 39.9967 19.99 39.9967L19.9933 40C20.525 40 21.05 39.8567 21.5117 39.5867L35.9817 31.125C36.9217 30.57 37.5017 29.545 37.5017 28.45V11.5367C37.5017 10.4333 36.9233 9.40833 35.9817 8.86167L21.5117 0.391667C20.6033 -0.131667 19.3883 -0.131667 18.4717 0.391667L4.01833 8.85333C3.08 9.40167 2.5 10.4333 2.5 11.5283V28.4417C2.5 29.545 3.07833 30.57 4.01833 31.1167L7.81 33.3317C9.64333 34.2533 10.3 34.2533 11.1383 34.2533C13.8567 34.2533 15.4233 32.5867 15.4233 29.6817V12.975C15.4233 12.7383 15.2283 12.555 15 12.555H13.1667C12.9317 12.555 12.7433 12.7367 12.7433 12.975V29.6733C12.7433 30.9667 11.4267 32.245 9.27167 31.1583L5.30833 28.84C5.17 28.7683 5.08333 28.61 5.08333 28.45V11.5367C5.08333 11.3717 5.17 11.2117 5.31 11.1317L19.7633 2.67C19.895 2.59 20.0767 2.59 20.21 2.67L34.6717 11.1233C34.8117 11.21 34.8983 11.3617 34.8983 11.5283V28.45C34.8983 28.6067 34.8133 28.7667 34.68 28.8467L20.21 37.3083C20.085 37.3883 19.8967 37.3883 19.7633 37.3083L16.05 35.0783C15.94 35.0067 15.8 34.9817 15.69 35.045Z" fill="#8CC03E"/>
<path d="M24.4567 25.7817C20.6267 25.7817 19.7867 24.805 19.5067 22.8767C19.475 22.67 19.3033 22.52 19.0917 22.52H17.22C16.985 22.52 16.805 22.71 16.805 22.94C16.805 25.4083 18.1283 28.3533 24.465 28.3533C29.0383 28.345 31.6733 26.5133 31.6733 23.3217L31.6683 23.3233C31.6683 20.1567 29.5533 19.315 25.1117 18.72C20.615 18.1167 20.1617 17.8067 20.1617 16.7433C20.1617 15.8633 20.5467 14.6883 23.875 14.6883C26.845 14.6883 27.9417 15.3383 28.395 17.37C28.4333 17.5617 28.6067 17.7033 28.8033 17.7033H30.6833C30.8 17.7033 30.91 17.6567 30.9883 17.5683C31.0667 17.48 31.105 17.3617 31.0983 17.2433C30.8083 13.7433 28.5133 12.1167 23.875 12.1167C19.7467 12.1167 17.2867 13.88 17.2867 16.8383C17.2867 20.045 19.7383 20.935 23.695 21.33C28.435 21.8 28.8017 22.505 28.8017 23.45C28.805 25.085 27.505 25.7817 24.4567 25.7817Z" fill="#8CC03E"/>
</g>
<defs>
<clipPath id="clip0_6_90">
<rect width="40" height="40" fill="white"/>
</clipPath>
</defs>
</svg>
