<svg width="25" height="25" viewBox="0 0 25 25" fill="none" xmlns="http://www.w3.org/2000/svg">
<path d="M15.2219 6.20078V10.4797L16.7187 11.4211C16.7728 11.433 16.8288 11.433 16.8828 11.4211L23.3187 7.08203C23.314 6.87144 23.237 6.66889 23.1006 6.50841C22.9641 6.34793 22.7766 6.2393 22.5695 6.20078H15.2219Z" fill="white"/>
<path d="M15.2219 12.0758L16.5867 13.0133C16.6506 13.0522 16.724 13.0728 16.7988 13.0728C16.8736 13.0728 16.947 13.0522 17.0109 13.0133C16.7766 13.1547 23.318 8.81172 23.318 8.81172V16.6758C23.335 16.8351 23.3171 16.9963 23.2653 17.148C23.2136 17.2997 23.1293 17.4382 23.0185 17.5539C22.9076 17.6696 22.7727 17.7597 22.6234 17.8179C22.4741 17.876 22.3138 17.9009 22.1539 17.8906H15.2211V12.0758H15.2219ZM8.15624 10.1031C7.92947 10.102 7.70662 10.1623 7.51132 10.2776C7.31602 10.3928 7.15553 10.5588 7.04687 10.7578C6.75008 11.2854 6.60768 11.8859 6.63593 12.4906C6.60509 13.0941 6.74769 13.6938 7.04687 14.2188C7.15508 14.4096 7.31161 14.5686 7.50074 14.6798C7.68988 14.791 7.90494 14.8505 8.12433 14.8522C8.34372 14.8539 8.5597 14.7979 8.75057 14.6897C8.94145 14.5816 9.10049 14.4251 9.21171 14.2359C9.50763 13.7134 9.64728 13.1168 9.61406 12.5172C9.64794 11.8987 9.51291 11.2827 9.22343 10.7352C9.11998 10.5426 8.9659 10.382 8.77782 10.2706C8.58975 10.1592 8.37482 10.1013 8.15624 10.1031Z" fill="white"/>
<path d="M1.68204 4.02734V20.7672L14.4164 23.4375V1.5625L1.68204 4.02734ZM10.2039 15.2273C9.9657 15.5632 9.64895 15.8356 9.28128 16.021C8.91361 16.2063 8.50619 16.2989 8.09454 16.2906C7.69325 16.2978 7.29617 16.2079 6.93708 16.0286C6.57798 15.8493 6.2675 15.586 6.03204 15.2609C5.47359 14.4813 5.19423 13.5361 5.23907 12.5781C5.19156 11.5732 5.47597 10.5805 6.04844 9.75313C6.28967 9.41088 6.61139 9.13324 6.98524 8.94468C7.35909 8.75612 7.77359 8.66244 8.19219 8.67188C8.59058 8.66388 8.98484 8.7538 9.34036 8.93374C9.69588 9.11368 10.0018 9.37814 10.2313 9.70391C10.7841 10.5005 11.0587 11.4572 11.0125 12.4258C11.0612 13.4235 10.7768 14.409 10.2039 15.2273Z" fill="white"/>
</svg>
