<svg width="40" height="40" viewBox="0 0 40 40" fill="none" xmlns="http://www.w3.org/2000/svg">
<path d="M20 23.0925C21.7259 23.0925 23.125 21.6934 23.125 19.9675C23.125 18.2416 21.7259 16.8425 20 16.8425C18.2741 16.8425 16.875 18.2416 16.875 19.9675C16.875 21.6934 18.2741 23.0925 20 23.0925Z" fill="#00D8FF"/>
<path d="M20 27.1325C16.2439 27.2234 12.4972 26.717 8.9 25.6325C7.23828 25.1057 5.68842 24.2759 4.32875 23.185C3.80991 22.8123 3.37784 22.3318 3.06218 21.7764C2.74652 21.2211 2.55474 20.604 2.5 19.9675C2.5 17.9012 4.77 15.8762 8.5725 14.5512C12.2659 13.3772 16.1249 12.8082 20 12.8662C23.8234 12.8128 27.6307 13.3716 31.2775 14.5212C32.8779 15.0314 34.3752 15.8212 35.7 16.8537C36.21 17.209 36.6356 17.6722 36.9466 18.2102C37.2577 18.7483 37.4466 19.3483 37.5 19.9675C37.5 22.115 34.9625 24.2912 30.875 25.6437C27.3474 26.693 23.6798 27.195 20 27.1325ZM20 14.3612C16.2926 14.3117 12.601 14.8526 9.06375 15.9637C5.56375 17.185 3.995 18.855 3.995 19.9637C3.995 21.1237 5.68125 22.9475 9.38375 24.2137C12.8251 25.2461 16.4083 25.7266 20 25.6375C23.5205 25.7005 27.0299 25.2241 30.4062 24.225C34.25 22.9512 36 21.125 36 19.9675C35.9369 19.5703 35.7922 19.1905 35.5749 18.852C35.3576 18.5136 35.0724 18.2239 34.7375 18.0012C33.5522 17.0852 32.2146 16.3853 30.7862 15.9337C27.2975 14.8384 23.6562 14.3076 20 14.3612Z" fill="#00D8FF"/>
<path d="M12.9 35.5537C12.3169 35.5671 11.7406 35.4257 11.23 35.1437C9.44 34.1112 8.82 31.1337 9.57125 27.1775C10.3996 23.3914 11.8348 19.7641 13.8213 16.4362C15.6847 13.0976 18.0702 10.0786 20.8875 7.49375C22.129 6.36213 23.5611 5.45943 25.1175 4.8275C25.6805 4.56367 26.2945 4.42691 26.9163 4.42691C27.538 4.42691 28.1521 4.56367 28.715 4.8275C30.5763 5.9 31.1925 9.185 30.3238 13.4012C29.4699 16.9819 28.072 20.4105 26.1788 23.5675C24.3809 26.8667 22.0705 29.8594 19.3338 32.4337C18.0472 33.6097 16.5542 34.5374 14.93 35.17C14.2798 35.4113 13.5935 35.5411 12.9 35.5537ZM15.1163 17.1787C13.2214 20.3654 11.8458 23.8334 11.0413 27.4525C10.35 31.0962 11.0138 33.2875 11.9788 33.845C12.9788 34.4237 15.4062 33.875 18.3538 31.3C20.9663 28.8337 23.1715 25.969 24.8875 22.8125C26.7012 19.7944 28.0421 16.5164 28.8638 13.0925C29.6812 9.12375 28.975 6.69375 27.9725 6.11625C27.5968 5.97228 27.1952 5.90783 26.7933 5.92698C26.3914 5.94613 25.9978 6.04846 25.6375 6.2275C24.2521 6.79918 22.9784 7.61078 21.875 8.625C19.1833 11.101 16.9046 13.9912 15.125 17.1862L15.1163 17.1787Z" fill="#00D8FF"/>
<path d="M27.0963 35.57C25.4025 35.57 23.2513 34.545 21.0113 32.6188C18.1446 30.0103 15.7187 26.9555 13.8275 23.5725C11.8659 20.2905 10.4421 16.7157 9.61 12.9838C9.24914 11.3419 9.18227 9.64899 9.4125 7.98375C9.46573 7.36601 9.65383 6.76747 9.96354 6.23033C10.2733 5.6932 10.697 5.23054 11.205 4.875C13.0638 3.79875 16.2175 4.905 19.4363 7.7625C22.112 10.2902 24.3842 13.2134 26.1737 16.43C28.1341 19.6354 29.5729 23.1319 30.4363 26.7888C30.8126 28.4909 30.8707 30.248 30.6075 31.9713C30.5449 32.6068 30.3456 33.2212 30.0232 33.7725C29.7009 34.3237 29.2631 34.7988 28.74 35.165C28.2377 35.4434 27.6704 35.5832 27.0963 35.57ZM15.1213 22.82C16.9355 26.053 19.2529 28.9767 21.9863 31.4813C24.7975 33.9 27.0275 34.42 27.9862 33.8563C28.9862 33.275 29.7237 30.9025 28.9638 27.0638C28.1311 23.5724 26.7511 20.2349 24.875 17.175C23.1673 14.0964 20.9984 11.2973 18.4438 8.875C15.4138 6.185 12.9563 5.58375 11.955 6.16375C11.6429 6.41736 11.3868 6.73291 11.2029 7.09049C11.0189 7.44807 10.9111 7.8399 10.8863 8.24125C10.6875 9.72636 10.7523 11.2349 11.0775 12.6975C11.8779 16.2664 13.2434 19.6845 15.1225 22.8225L15.1213 22.82Z" fill="#00D8FF"/>
</svg>
