<svg width="40" height="40" viewBox="0 0 40 40" fill="none" xmlns="http://www.w3.org/2000/svg">
<path d="M38.0625 29.0937C35.9688 30.1875 25.125 34.625 22.8125 35.8437C20.5 37.0625 19.2188 37.0312 17.4063 36.1562C15.5938 35.2812 4.0625 30.6562 1.96875 29.6562C0.9375 29.1562 0.40625 28.75 0.40625 28.3437V24.375C0.40625 24.375 15.4063 21.0938 17.8438 20.25C20.2813 19.375 21.0938 19.3438 23.1562 20.0938C25.2188 20.8438 37.5625 23.0625 39.5938 23.8125V27.7187C39.5938 28.125 39.125 28.5625 38.0625 29.0937Z" fill="#A41E11"/>
<path d="M38.0625 25.1563C35.9688 26.25 25.125 30.6875 22.8125 31.9062C20.5 33.125 19.2188 33.0938 17.4063 32.2188C15.5938 31.3438 4.06251 26.6875 1.96876 25.6875C-0.0937402 24.6875 -0.15624 24 1.87501 23.2188C3.90626 22.4063 15.375 17.9063 17.8125 17.0625C20.25 16.1875 21.0625 16.1563 23.125 16.9063C25.1875 17.6563 35.9688 21.9375 38 22.6875C40.0938 23.4375 40.1563 24.0625 38.0625 25.1563Z" fill="#D82C20"/>
<path d="M38.0625 22.6562C35.9688 23.75 25.125 28.1875 22.8125 29.4062C20.5 30.5937 19.2188 30.5937 17.4063 29.7187C15.5938 28.8437 4.0625 24.1875 1.96875 23.1875C0.9375 22.6875 0.40625 22.2812 0.40625 21.875V17.9062C0.40625 17.9062 15.4063 14.625 17.8438 13.7813C20.2813 12.9063 21.0938 12.875 23.1562 13.625C25.2188 14.375 37.5625 16.5938 39.5938 17.3438V21.25C39.5938 21.6562 39.125 22.0938 38.0625 22.6562Z" fill="#A41E11"/>
<path d="M38.0625 18.6875C35.9687 19.7812 25.125 24.2187 22.8125 25.4375C20.5 26.625 19.2187 26.625 17.4062 25.75C15.5937 24.875 4.06249 20.2187 1.96874 19.2187C-0.125011 18.2187 -0.156261 17.5312 1.87499 16.75C3.90624 15.9375 15.375 11.4375 17.8125 10.5938C20.25 9.71875 21.0625 9.6875 23.125 10.4375C25.1875 11.1875 35.9687 15.4688 38 16.2187C40.0937 16.9687 40.1562 17.5937 38.0625 18.6875Z" fill="#D82C20"/>
<path d="M38.0625 15.9375C35.9688 17.0312 25.125 21.4687 22.8125 22.6875C20.5 23.875 19.2188 23.875 17.4062 23C15.5938 22.1562 4.0625 17.5 1.96875 16.5C0.9375 16 0.375 15.5938 0.375 15.1875V11.2188C0.375 11.2188 15.375 7.9375 17.8125 7.09375C20.25 6.21875 21.0625 6.1875 23.125 6.9375C25.1875 7.6875 37.5312 9.90625 39.5625 10.6562V14.5625C39.5938 14.9688 39.125 15.375 38.0625 15.9375Z" fill="#A41E11"/>
<path d="M38.0625 11.9688C35.9687 13.0625 25.125 17.5 22.8125 18.7188C20.5 19.9062 19.2187 19.9062 17.4062 19.0312C15.5937 18.1562 4.06249 13.5312 1.96874 12.5312C-0.125011 11.5312 -0.156261 10.8438 1.87499 10.0625C3.90624 9.25 15.375 4.75 17.8125 3.90625C20.25 3.03125 21.0625 3 23.125 3.75C25.1875 4.5 35.9687 8.78125 38 9.53125C40.0937 10.2813 40.1562 10.9062 38.0625 11.9688Z" fill="#D82C20"/>
<path d="M25.125 8.15625L21.75 8.53125L20.9687 10.3437L19.75 8.3125L15.8438 7.96875L18.75 6.90625L17.875 5.28125L20.625 6.34375L23.1875 5.5L22.5 7.1875L25.125 8.15625ZM20.7812 17.0312L14.4375 14.4062L23.5313 13.0313L20.7812 17.0312Z" fill="white"/>
<path d="M12 12.9375C14.6751 12.9375 16.8438 12.098 16.8438 11.0625C16.8438 10.027 14.6751 9.1875 12 9.1875C9.32487 9.1875 7.15625 10.027 7.15625 11.0625C7.15625 12.098 9.32487 12.9375 12 12.9375Z" fill="white"/>
<path d="M29.1562 8.65625L34.5312 10.7812L29.1562 12.9062V8.65625Z" fill="#7A0C00"/>
<path d="M23.2188 11.0312L29.1562 8.65625V12.9062L28.5625 13.1562L23.2188 11.0312Z" fill="#AD2115"/>
</svg>
