<svg width="20" height="20" viewBox="0 0 20 20" fill="none" xmlns="http://www.w3.org/2000/svg">
<path fill-rule="evenodd" clip-rule="evenodd" d="M2.83025 0.318723L3.07967 0.525468L9.99801 7.44809L16.9177 0.52947C17.2358 0.210733 17.6616 0.0225388 18.1114 0.00189708C18.5612 -0.0187446 19.0025 0.129659 19.3484 0.417925C19.6944 0.706191 19.92 1.11346 19.9808 1.55964C20.0417 2.00582 19.9334 2.45862 19.6773 2.82901L19.4706 3.08244L12.5482 9.99973L19.4706 16.9184C19.7893 17.2365 19.9775 17.6623 19.9981 18.1121C20.0187 18.562 19.8703 19.0033 19.5821 19.3492C19.2938 19.6952 18.8866 19.9207 18.4404 19.9816C17.9943 20.0425 17.5415 19.9342 17.1711 19.6781L16.9177 19.4713L10.0007 12.5474L3.07967 19.47C2.76158 19.7887 2.33576 19.9769 1.88594 19.9976C1.43612 20.0182 0.994857 19.8698 0.648919 19.5815C0.30298 19.2933 0.0774037 18.886 0.0165488 18.4398C-0.0443061 17.9936 0.0639646 17.5408 0.320069 17.1704L0.526805 16.917L7.44915 9.99839L0.530807 3.07844C0.215898 2.75988 0.0308167 2.33551 0.011602 1.88798C-0.00761268 1.44044 0.140415 1.00178 0.426861 0.657396C0.713306 0.313015 1.11766 0.0875726 1.5612 0.0249682C2.00473 -0.0376362 2.45568 0.0670791 2.82625 0.318723H2.83025Z" fill="white"/>
</svg>
