<svg width="40" height="40" viewBox="0 0 40 40" fill="none" xmlns="http://www.w3.org/2000/svg">
<path d="M31.825 13.0375V26.875L20.0563 33.85L19.95 33.9469V39.125L20.0563 39.225L36.6188 29.65V10.35L36.4625 10.3125L31.775 12.925L31.8 13.0375" fill="#2F406A"/>
<path d="M8.24999 27L20.0562 33.85V39.225L3.36874 29.6125V10.3875L3.54062 10.3625L8.19999 13.0719L8.24999 13.2281V27Z" fill="#2379BD"/>
<path d="M8.24999 13.225L3.36874 10.3875L20.0187 0.775002L36.6312 10.35L31.825 13.0375L20.0187 6.3L8.24999 13.225Z" fill="#03AFEF"/>
<path d="M19.8531 25.4156L19.725 25.2844V20.0844L19.8531 20.0188L19.8844 19.8906L24.3438 17.2906L24.4813 17.3219V22.6813L19.8563 25.4187" fill="#2F406A"/>
<path d="M15.15 22.8469V17.2812H15.2781L19.8125 19.9219L19.85 20.025V25.4156L15.15 22.8469Z" fill="#2379BD"/>
<path d="M19.7781 14.5437L15.15 17.2812L19.8531 20.0187L24.4781 17.3187L19.7781 14.5437Z" fill="#03AFEF"/>
<path d="M14.0969 28.8094L13.9688 28.6781V23.4781L14.0969 23.4125L14.1281 23.2844L18.5875 20.6844L18.725 20.7156V26.0719L14.1 28.8094" fill="#2F406A"/>
<path d="M9.39375 26.25V20.675H9.52188L14.0625 23.3094L14.1 23.4125V28.8094L9.39375 26.25Z" fill="#2379BD"/>
<path d="M14.0188 17.9375L9.39375 20.675L14.0969 23.4125L18.7219 20.7125L14.0188 17.9375Z" fill="#03AFEF"/>
<path d="M26.0219 28.9375L25.8937 28.8063V23.6063L26.0219 23.5406L26.0531 23.4125L30.5125 20.8125L30.65 20.8437V26.2L26.0219 28.9375Z" fill="#2F406A"/>
<path d="M21.3188 26.3687V20.8031H21.4469L25.9844 23.4375L26.0219 23.5406V28.9375L21.3188 26.3687Z" fill="#2379BD"/>
<path d="M25.9375 18.0656L21.3125 20.8031L26.0156 23.5406L30.6406 20.8406L25.9375 18.0656Z" fill="#03AFEF"/>
<path d="M20.2656 32.3313L20.1375 32.2V27L20.2656 26.9344L20.2969 26.8063L24.7563 24.2063L24.8938 24.2375V29.5938L20.2688 32.3313" fill="#2F406A"/>
<path d="M15.5625 29.7594V24.1969H15.6906L20.225 26.8375L20.2625 26.9406V32.3375L15.5625 29.7594Z" fill="#2379BD"/>
<path d="M20.1875 21.4594L15.5625 24.1969L20.2656 26.9344L24.8906 24.2344L20.1875 21.4594Z" fill="#03AFEF"/>
<path d="M19.8531 18.0406L19.725 17.9094V12.7094L19.8531 12.6437L19.8844 12.5156L24.3438 9.9125L24.4813 9.94375V15.3125L19.8563 18.05" fill="#2F406A"/>
<path d="M15.15 15.4688V9.90625H15.2781L19.8125 12.5469L19.85 12.65V18.0406L15.15 15.4688Z" fill="#2379BD"/>
<path d="M19.7781 7.16875L15.15 9.90625L19.8531 12.6437L24.4781 9.94375L19.7781 7.16875Z" fill="#03AFEF"/>
<path d="M14.0969 21.4344L13.9688 21.3031V16.1031L14.0969 16.0375L14.1281 15.9094L18.5875 13.3094L18.725 13.3406V18.6969L14.1 21.4344" fill="#2F406A"/>
<path d="M9.39375 18.8625V13.2969H9.52188L14.0625 15.9375L14.1 16.0406V21.4344L9.39375 18.8625Z" fill="#2379BD"/>
<path d="M14.0188 10.5625L9.39375 13.3L14.0969 16.0375L18.7219 13.3375L14.0188 10.5625Z" fill="#03AFEF"/>
<path d="M26.0219 21.5625L25.8937 21.4313V16.2312L26.0219 16.1656L26.0531 16.0375L30.5125 13.4375L30.65 13.4687V18.825L26.0219 21.5625Z" fill="#2F406A"/>
<path d="M21.3188 18.9906V13.4375H21.4469L25.9813 16.0781L26.0188 16.1812V21.5625L21.3188 18.9906Z" fill="#2379BD"/>
<path d="M25.9375 10.6906L21.3188 13.4375L26.0219 16.175L30.6469 13.475L25.9375 10.6906Z" fill="#03AFEF"/>
<path d="M20.2656 24.9531L20.1375 24.8219V19.6219L20.2656 19.5563L20.2969 19.4281L24.7563 16.8281L24.8938 16.8594V22.2156L20.2688 24.9531" fill="#2F406A"/>
<path d="M15.5625 22.3844V16.8187H15.6906L20.225 19.4594L20.2625 19.5625V24.9531L15.5625 22.3844Z" fill="#2379BD"/>
<path d="M20.1875 14.0813L15.5625 16.8188L20.2656 19.5563L24.8906 16.8563L20.1875 14.0813Z" fill="#03AFEF"/>
</svg>
