<svg width="40" height="40" viewBox="0 0 40 40" fill="none" xmlns="http://www.w3.org/2000/svg">
<path d="M20 8C14.6667 8 11.3333 10.6667 10 16C12 13.3333 14.3333 12.3333 17 13C18.5214 13.3803 19.6089 14.4842 20.8127 15.7059C22.7736 17.6964 25.043 20 30 20C35.3333 20 38.6667 17.3333 40 12C38 14.6667 35.6667 15.6667 33 15C31.4786 14.6197 30.3911 13.5158 29.1873 12.2941C27.2264 10.3036 24.957 8 20 8ZM10 20C4.66672 20 1.33328 22.6667 0 28C2 25.3333 4.33328 24.3333 7 25C8.52141 25.3803 9.60891 26.4842 10.8127 27.7059C12.7736 29.6964 15.043 32 20 32C25.3333 32 28.6667 29.3333 30 24C28 26.6667 25.6667 27.6667 23 27C21.4786 26.6197 20.3911 25.5158 19.1873 24.2941C17.2264 22.3036 14.957 20 10 20Z" fill="url(#paint0_linear_6_91)"/>
<defs>
<linearGradient id="paint0_linear_6_91" x1="-1.1112" y1="15.68" x2="33.4353" y2="35.5989" gradientUnits="userSpaceOnUse">
<stop stop-color="#2298BD"/>
<stop offset="1" stop-color="#0ED7B5"/>
</linearGradient>
</defs>
</svg>
