<svg width="40" height="40" viewBox="0 0 40 40" fill="none" xmlns="http://www.w3.org/2000/svg">
<path d="M35.86 2.5H4.14C3.23425 2.5 2.5 3.23425 2.5 4.14V35.86C2.5 36.7657 3.23425 37.5 4.14 37.5H35.86C36.7657 37.5 37.5 36.7657 37.5 35.86V4.14C37.5 3.23425 36.7657 2.5 35.86 2.5Z" fill="#3178C6"/>
<path fill-rule="evenodd" clip-rule="evenodd" d="M22.8062 29.6987V33.5337C23.503 33.8777 24.2456 34.1197 25.0112 34.2525C25.896 34.4158 26.794 34.4962 27.6937 34.4925C28.5706 34.4967 29.4454 34.4083 30.3037 34.2287C31.0743 34.073 31.8096 33.7764 32.4725 33.3537C33.0879 32.9565 33.5951 32.4127 33.9487 31.7712C34.582 30.4429 34.6656 28.9183 34.1812 27.5287C33.9769 27.0091 33.6723 26.5347 33.285 26.1325C32.8692 25.7048 32.3969 25.336 31.8812 25.0362C31.2875 24.6885 30.6707 24.382 30.035 24.1187C29.535 23.9112 29.085 23.7096 28.685 23.5137C28.3297 23.3436 27.9897 23.1433 27.6687 22.915C27.4173 22.7388 27.199 22.5196 27.0237 22.2675C26.8723 22.0386 26.7935 21.7694 26.7975 21.495C26.7941 21.2425 26.8645 20.9944 27 20.7812C27.1471 20.5582 27.3434 20.3717 27.5737 20.2362C27.8553 20.0705 28.1617 19.951 28.4812 19.8825C28.8735 19.7954 29.2744 19.7534 29.6762 19.7575C30.0142 19.7587 30.3516 19.7829 30.6862 19.83C31.0476 19.8789 31.4051 19.9528 31.7562 20.0512C32.1134 20.1502 32.4627 20.2756 32.8012 20.4262C33.1298 20.5727 33.444 20.7493 33.74 20.9537V17.375C33.1239 17.1419 32.4849 16.9743 31.8337 16.875C31.0474 16.7606 30.2534 16.7067 29.4587 16.7137C28.5901 16.7091 27.7241 16.8077 26.8787 17.0075C26.1147 17.1821 25.3881 17.4924 24.7337 17.9237C24.1258 18.3287 23.6239 18.8735 23.27 19.5125C22.8949 20.2221 22.7094 21.0164 22.7312 21.8187C22.7035 22.8797 23.053 23.9162 23.7175 24.7437C24.5327 25.6614 25.5607 26.3648 26.7112 26.7925C27.2362 27.0092 27.7258 27.2212 28.18 27.4288C28.5898 27.6111 28.9836 27.8272 29.3575 28.075C29.659 28.2712 29.9239 28.5187 30.14 28.8062C30.33 29.0671 30.4308 29.3823 30.4275 29.705C30.4292 29.9468 30.3671 30.1848 30.2475 30.395C30.1146 30.6208 29.9277 30.8102 29.7037 30.9462C29.4234 31.1171 29.1168 31.2405 28.7962 31.3112C28.3787 31.4046 27.9516 31.4487 27.5237 31.4425C26.6841 31.441 25.8512 31.2929 25.0625 31.005C24.2385 30.7077 23.4744 30.2653 22.8062 29.6987ZM16.3637 20.1512H21.3637V16.9925H7.42249V20.1512H12.4V34.2187H16.3637V20.1512Z" fill="white"/>
</svg>
