<svg width="40" height="40" viewBox="0 0 40 40" fill="none" xmlns="http://www.w3.org/2000/svg">
<path d="M27.2667 23.3333C27.4 22.2333 27.5 21.1333 27.5 20C27.5 18.8667 27.4 17.7667 27.2667 16.6667H32.9C33.1667 17.7333 33.3333 18.85 33.3333 20C33.3333 21.15 33.1667 22.2667 32.9 23.3333M24.3167 32.6C25.3167 30.75 26.0833 28.75 26.6167 26.6667H31.5333C29.9186 29.4471 27.3569 31.5533 24.3167 32.6ZM23.9 23.3333H16.1C15.9333 22.2333 15.8333 21.1333 15.8333 20C15.8333 18.8667 15.9333 17.75 16.1 16.6667H23.9C24.05 17.75 24.1667 18.8667 24.1667 20C24.1667 21.1333 24.05 22.2333 23.9 23.3333ZM20 33.2667C18.6167 31.2667 17.5 29.05 16.8167 26.6667H23.1833C22.5 29.05 21.3833 31.2667 20 33.2667ZM13.3333 13.3333H8.46666C10.0648 10.5454 12.6247 8.43581 15.6667 7.4C14.6667 9.25 13.9167 11.25 13.3333 13.3333ZM8.46666 26.6667H13.3333C13.9167 28.75 14.6667 30.75 15.6667 32.6C12.631 31.5528 10.0747 29.4462 8.46666 26.6667ZM7.1 23.3333C6.83333 22.2667 6.66666 21.15 6.66666 20C6.66666 18.85 6.83333 17.7333 7.1 16.6667H12.7333C12.6 17.7667 12.5 18.8667 12.5 20C12.5 21.1333 12.6 22.2333 12.7333 23.3333M20 6.71667C21.3833 8.71667 22.5 10.95 23.1833 13.3333H16.8167C17.5 10.95 18.6167 8.71667 20 6.71667ZM31.5333 13.3333H26.6167C26.095 11.2691 25.3226 9.2765 24.3167 7.4C27.3833 8.45 29.9333 10.5667 31.5333 13.3333ZM20 3.33334C10.7833 3.33334 3.33333 10.8333 3.33333 20C3.33333 24.4203 5.08928 28.6595 8.21488 31.7851C9.76252 33.3328 11.5998 34.5604 13.6219 35.398C15.644 36.2356 17.8113 36.6667 20 36.6667C24.4203 36.6667 28.6595 34.9107 31.7851 31.7851C34.9107 28.6595 36.6667 24.4203 36.6667 20C36.6667 17.8113 36.2356 15.644 35.398 13.6219C34.5604 11.5999 33.3328 9.76253 31.7851 8.21489C30.2375 6.66725 28.4001 5.43959 26.3781 4.60201C24.356 3.76443 22.1887 3.33334 20 3.33334Z" fill="#83CBFF"/>
</svg>
